<svg width="685" height="506" viewBox="0 0 685 506" fill="none" xmlns="http://www.w3.org/2000/svg">
<g clip-path="url(#clip0)">
<path opacity="0.1" d="M7.37292 242.595C18.1895 284.458 41.0681 320.646 77.223 338.188C152.385 374.644 321.894 355.842 448.405 334.259C513.846 323.096 571.367 292.29 613.151 248.937L7.37292 242.595Z" fill="#FD7634"/>
<path opacity="0.1" d="M670.79 45.5417H601.376C598.081 45.5417 595.379 43.0972 595.379 40.1101C595.379 37.123 598.081 34.6723 601.376 34.6723H613.382C610.081 34.6723 607.385 32.2277 607.385 29.2344C607.385 26.2411 610.081 23.8028 613.382 23.8028H604.813C601.513 23.8028 598.81 21.3583 598.81 18.365C598.81 15.3716 601.513 12.9334 604.813 12.9334H641.043C633.003 9.54717 623.607 7.14005 612.778 5.87413C513.984 -5.61892 478.713 1.98283 466.271 9.79661C450.763 19.6574 433.536 26.4995 415.495 29.964C354.543 41.3573 240.555 55.0642 137.24 25.5988C85.8913 10.9253 47.725 35.6887 24.8527 77.0837H682.846C681.986 65.0543 679.414 53.9417 674.694 44.2197C673.576 45.084 672.202 45.5493 670.79 45.5417Z" fill="#FD7634"/>
<path opacity="0.1" d="M1.48835 155.215C-1.17783 179.562 -0.271517 204.168 4.17849 228.252L613.618 248.451C630.394 231.026 644.648 211.332 655.963 189.944L1.48835 155.215ZM242.529 207.318H230.53C233.83 207.318 236.532 209.768 236.532 212.755C236.532 215.743 233.83 218.187 230.53 218.187H161.115C157.821 218.187 155.119 215.743 155.119 212.755C155.119 209.768 157.821 207.318 161.115 207.318H173.121C169.821 207.318 167.125 204.873 167.125 201.886C167.125 198.899 169.821 196.448 173.121 196.448H164.547C161.246 196.448 158.544 194.004 158.544 191.017C158.544 188.029 161.246 185.579 164.547 185.579H233.961C237.261 185.579 239.957 188.023 239.957 191.017C239.957 194.01 237.261 196.448 233.961 196.448H242.529C245.83 196.448 248.526 198.893 248.526 201.886C248.526 204.879 245.83 207.318 242.529 207.318Z" fill="#FD7634"/>
<path opacity="0.1" d="M682.87 77.458L17.5107 92.1127C9.41543 110.964 4.04762 132.279 1.57544 154.367H671.213C675.571 141.444 678.805 128.168 680.878 114.687C682.877 101.71 683.674 89.1569 682.87 77.458ZM136.667 125.507H124.668C127.968 125.507 130.671 127.958 130.671 130.945C130.671 133.932 127.968 136.383 124.668 136.383H55.2536C51.9594 136.383 49.2568 133.932 49.2568 130.945C49.2568 127.958 51.9594 125.507 55.2536 125.507H67.2595C63.9591 125.507 61.2628 123.062 61.2628 120.075C61.2628 117.088 63.9591 114.637 67.2595 114.637H58.6847C55.3843 114.637 52.6817 112.193 52.6817 109.206C52.6817 106.219 55.3843 103.768 58.6847 103.768H128.099C131.399 103.768 134.096 106.212 134.096 109.206C134.096 112.199 131.399 114.637 128.099 114.637H136.667C139.968 114.637 142.664 117.088 142.664 120.075C142.664 123.062 139.968 125.507 136.667 125.507Z" fill="#FD7634"/>
<path opacity="0.1" d="M339.43 487.086C493.154 487.086 617.772 475.606 617.772 461.443C617.772 447.281 493.154 435.801 339.43 435.801C185.706 435.801 61.0884 447.281 61.0884 461.443C61.0884 475.606 185.706 487.086 339.43 487.086Z" fill="#FD7634"/>
<path d="M623.114 249.642C623.111 249.598 623.111 249.555 623.114 249.511C623.114 249.442 623.114 249.38 623.114 249.318C622.99 248.603 622.72 247.922 622.324 247.316C620.899 245.032 618.914 243.151 616.557 241.853C612.447 239.596 606.799 238.629 605.155 234.32C604.651 232.985 604.638 231.532 604.389 230.136C603.954 227.959 602.954 225.936 601.49 224.269C600.027 222.602 598.151 221.35 596.051 220.638C594.096 219.983 591.985 219.802 590.086 218.992C585.839 217.183 583.597 212.724 581.698 208.602C579.24 203.281 576.782 197.958 574.325 192.632C572.456 193.574 570.04 193.131 568.29 191.952C566.604 190.695 565.262 189.033 564.386 187.119C561.852 182.193 560.762 176.611 557.785 171.922C554.809 167.232 548.862 163.528 543.606 165.567C542.58 166.081 541.519 166.521 540.43 166.883C535.928 167.937 530.946 162.786 527.092 165.287C526.451 165.698 525.93 166.27 525.578 166.946C525.575 166.904 525.575 166.862 525.578 166.821C525.077 167.835 524.797 168.945 524.756 170.076C524.756 170.307 524.756 170.531 524.756 170.75C524.756 170.787 524.756 170.824 524.756 170.862C524.756 171.76 524.812 172.67 524.825 173.581C524.839 174.345 524.78 175.11 524.651 175.863V175.801C524.578 176.225 524.469 176.642 524.327 177.048C523.324 179.742 520.547 181.507 519.245 184.039V183.914C519.099 184.189 518.972 184.475 518.865 184.768C518.634 185.432 518.514 186.129 518.511 186.832C518.398 191.591 523.436 196.068 524.022 201.175C524.439 204.792 525.267 205.952 528.337 207.998L529.01 208.447C528.742 208.447 528.468 208.484 528.163 208.49C528.043 208.492 527.925 208.505 527.808 208.528C527.266 208.378 526.698 208.351 526.144 208.448C525.591 208.545 525.066 208.764 524.607 209.089C522.253 210.96 516.686 209.519 514.214 209.089C511.742 208.659 503.273 209.819 502.09 214.52C500.906 219.222 498.876 228.926 498.876 228.926C498.876 228.926 498.876 235.081 498.123 236.228C498.094 236.309 498.094 236.397 498.123 236.478C498.123 238.205 498.185 248.588 496.516 251.263C496.105 251.887 496.136 253.265 496.442 254.961C494.685 257.225 493.035 259.869 493.328 261.603C493.863 265.151 501.05 276.307 511.349 270.333C511.349 270.333 517.209 259.601 509.836 253.895L510.154 252.648C512.383 255.392 514.033 257.362 514.033 257.362C514.033 257.362 514.12 257.593 514.257 257.986H514.033C514.996 260.608 515.578 263.355 515.764 266.143C515.736 267.165 515.551 268.176 515.216 269.142H515.409C515.353 269.354 515.291 269.566 515.216 269.766C514.855 270.819 514.179 271.735 513.28 272.391C508.13 276.045 502.233 302.143 502.233 302.143C502.233 302.143 490.551 344.33 488.215 346.731C486.285 348.702 498.416 354.252 507.52 353.591C508.79 353.515 510.046 353.276 511.256 352.88C511.312 353.503 511.374 354.127 511.436 354.695C511.63 356.565 511.829 358.299 511.953 358.842C512.277 360.201 512.919 374.082 512.919 374.082C512.919 374.082 511.605 383.1 511.922 389.373C511.922 389.804 511.978 390.215 512.016 390.621L510.882 390.795C509.164 394.661 516.244 426.921 517.209 429.633C517.848 431.771 518.208 433.982 518.28 436.212C518.28 436.212 517.657 438.507 518.174 439.761C518.496 440.527 518.706 441.335 518.797 442.162C518.797 442.162 518.374 444.244 519.015 445.604C519.656 446.963 518.909 449.345 518.909 449.345C518.909 449.345 518.697 458.743 516.767 463.857C516.241 465.233 516.088 466.724 516.323 468.178C516.559 469.632 517.173 470.999 518.106 472.138C518.24 472.316 518.386 472.485 518.542 472.643C518.542 472.643 529.19 472.731 531.065 472.643H531.307C532.061 472.537 533.991 464.081 532.273 460.009C530.554 455.937 532.061 450.923 532.061 450.923V443.515C532.061 443.515 533.991 441.731 532.061 437.902C530.13 434.073 530.448 432.913 530.448 432.913C530.448 432.913 532.596 426.752 530.342 424.769C528.088 422.786 530.772 415.265 530.772 415.265L531.532 390.196C531.134 390.067 530.728 389.963 530.317 389.885C530.274 389.473 530.23 389.049 530.187 388.6C529.744 384.06 529.364 377.886 530.348 376.128C531.332 374.369 531.806 359.016 531.961 348.346L541.775 348.72C541.981 353.709 542.199 358.262 542.336 358.842C542.659 360.201 543.307 374.082 543.307 374.082C543.307 374.082 541.987 383.1 542.305 389.373C542.305 389.804 542.361 390.215 542.398 390.621L541.265 390.795C539.546 394.661 546.626 426.921 547.591 429.633C548.231 431.771 548.593 433.982 548.669 436.212C548.669 436.212 548.046 438.507 548.557 439.761C548.879 440.527 549.088 441.335 549.179 442.162C549.179 442.162 548.756 444.244 549.397 445.604C550.039 446.963 549.291 449.345 549.291 449.345C549.291 449.345 549.08 458.743 547.149 463.857C546.632 465.235 546.487 466.725 546.73 468.177C546.973 469.63 547.594 470.992 548.532 472.126C548.666 472.303 548.811 472.472 548.968 472.631C548.968 472.631 559.616 472.718 561.49 472.631H561.733C562.487 472.525 564.417 464.069 562.698 459.997C560.98 455.924 562.487 450.911 562.487 450.911V443.515C562.487 443.515 564.417 441.731 562.487 437.902C560.556 434.073 560.874 432.913 560.874 432.913C560.874 432.913 563.022 426.752 560.768 424.769C558.514 422.786 561.198 415.265 561.198 415.265L561.97 390.196C561.562 390.065 561.146 389.961 560.724 389.885C560.681 389.473 560.637 389.049 560.594 388.6C560.152 384.06 559.772 377.886 560.756 376.128C561.546 374.687 562.001 365.408 562.207 356.347C562.207 355.724 562.207 355.1 562.256 354.476C566.765 354.288 571.256 353.784 575.695 352.967C575.695 352.967 570.445 334.378 572.052 331.353C572.743 330.05 571.747 323.109 570.383 315.632C572.285 317.174 574.649 318.03 577.096 318.064C579.443 322.585 586.586 332.987 590.609 334.59C595.329 336.46 591.786 319.872 589.538 317.472C588.474 316.161 587.578 314.721 586.872 313.187C586.935 313.113 587.003 313.05 587.065 312.982C587.128 312.913 587.177 295.334 586.1 295.652C585.023 295.97 583.74 293.039 583.74 293.039L580.415 263.81L579.02 251.575C580.184 252.436 581.567 252.984 582.756 253.839C585.994 256.215 587.053 260.387 588.473 264.078C589.643 267.115 591.287 270.127 593.984 272.036C596.68 273.944 600.634 274.449 603.324 272.516C605.815 270.701 606.55 267.427 607.098 264.44C611.619 266.03 617.105 261.777 616.52 257.131C616.377 255.984 615.953 254.731 616.551 253.727C617.747 251.744 621.533 252.897 622.778 250.939C622.988 250.6 623.096 250.209 623.089 249.81C623.108 249.723 623.114 249.686 623.114 249.642ZM562.642 265.719C562.574 266.835 564.106 275.802 565.351 282.899C564.33 278.478 562.281 273.757 558.246 270.52C558.246 270.52 558.246 270.296 558.196 269.897H558.246C558.246 269.897 558.078 268.113 558.053 265.575C558.06 263.325 558.227 261.079 558.551 258.853V258.797H558.47C558.47 258.609 558.52 258.416 558.551 258.229C558.799 256.35 559.308 254.516 560.064 252.779C560.399 252.098 560.784 251.443 561.216 250.821C561.883 256.851 562.705 264.59 562.642 265.719ZM565.993 286.497C566.541 289.559 566.933 291.71 566.933 291.71L570.24 314.447V314.553C568.459 304.956 566.186 294.841 566.186 294.841C566.417 292.061 566.353 289.264 565.993 286.497Z" fill="url(#paint0_linear)"/>
<path d="M525.466 202.422C524.844 196.66 518.617 191.69 520.485 186.208C521.5 183.221 524.676 181.394 525.747 178.426C526.457 176.468 526.139 174.316 526.145 172.233C526.151 170.151 526.637 167.825 528.368 166.671C532.105 164.176 536.912 169.309 541.271 168.261C542.325 167.9 543.351 167.462 544.341 166.952C549.429 164.925 555.182 168.617 558.041 173.281C560.899 177.946 561.97 183.508 564.424 188.41C565.261 190.303 566.559 191.955 568.197 193.218C569.891 194.39 572.208 194.833 574.038 193.898L581.168 209.8C583.037 213.897 585.179 218.337 589.264 220.139C591.094 220.943 593.137 221.124 595.03 221.779C597.088 222.506 598.918 223.761 600.339 225.419C601.76 227.077 602.721 229.08 603.125 231.227C603.368 232.623 603.374 234.07 603.866 235.399C605.454 239.689 610.916 240.649 614.895 242.882C617.197 244.182 619.126 246.052 620.499 248.313C621.122 249.392 621.657 250.808 620.991 251.868C619.789 253.814 616.134 252.666 614.976 254.643C614.39 255.641 614.801 256.888 614.976 258.035C615.542 262.656 610.231 266.891 605.859 265.307C605.33 268.281 604.614 271.543 602.21 273.345C599.626 275.278 595.796 274.767 593.187 272.871C590.578 270.975 588.996 267.976 587.863 264.951C586.486 261.272 585.459 257.119 582.327 254.755C581.193 253.907 579.836 253.358 578.727 252.504C576.236 250.596 574.991 247.447 574.101 244.397C572.949 240.593 572.033 236.683 570.364 233.091C568.695 229.499 566.055 226.157 562.437 224.517C559.043 222.989 555.133 223.089 551.627 221.848C545.593 219.715 541.128 214.632 535.125 212.238C533.206 211.43 531.387 210.4 529.707 209.17C526.687 207.18 525.865 206.027 525.466 202.422Z" fill="#3F3D56"/>
<g opacity="0.1">
<path opacity="0.1" d="M526.027 177.204C526.155 176.96 526.268 176.708 526.363 176.449C527.067 174.491 526.755 172.34 526.762 170.257C526.761 169.562 526.826 168.869 526.955 168.187C526.38 169.419 526.101 170.768 526.139 172.128C526.133 173.805 526.332 175.564 526.027 177.204Z" fill="black"/>
<path opacity="0.1" d="M602.795 271.387C600.211 273.314 596.381 272.809 593.772 270.907C591.163 269.005 589.575 266.018 588.473 262.981C587.097 259.302 586.075 255.148 582.937 252.785C581.81 251.937 580.446 251.382 579.344 250.534C576.853 248.626 575.607 245.476 574.711 242.458C573.559 238.654 572.65 234.744 570.974 231.152C569.299 227.56 566.672 224.218 563.047 222.577C559.66 221.05 555.749 221.149 552.243 219.908C546.203 217.776 541.738 212.693 535.741 210.299C533.821 209.488 532.001 208.459 530.317 207.231C527.366 205.191 526.581 204.038 526.145 200.439C525.522 195.039 520.043 190.331 520.896 185.242C520.757 185.517 520.634 185.801 520.528 186.09C518.66 191.578 524.887 196.548 525.51 202.304C525.915 205.902 526.755 207.056 529.682 209.095C531.366 210.324 533.186 211.353 535.106 212.163C541.103 214.558 545.568 219.647 551.608 221.773C555.114 223.02 559.025 222.914 562.412 224.442C566.036 226.082 568.639 229.431 570.339 233.017C572.039 236.602 572.948 240.5 574.076 244.323C574.991 247.341 576.193 250.49 578.709 252.398C579.836 253.246 581.199 253.801 582.302 254.65C585.415 257.013 586.461 261.166 587.838 264.846C588.971 267.87 590.559 270.863 593.168 272.759C595.777 274.655 599.607 275.166 602.191 273.239C603.841 271.992 604.682 270.09 605.236 268.051C604.744 269.366 603.899 270.52 602.795 271.387Z" fill="black"/>
<path opacity="0.1" d="M615.592 252.685C615.354 253.132 615.25 253.639 615.293 254.144C616.701 252.754 619.876 253.571 620.985 251.781C621.242 251.339 621.343 250.822 621.271 250.315C619.827 251.687 616.651 250.87 615.592 252.685Z" fill="black"/>
<path opacity="0.1" d="M606.444 263.349C606.326 263.973 606.208 264.64 606.058 265.288C609.869 266.479 614.272 263.418 614.895 259.551C613.382 262.526 609.645 264.515 606.444 263.349Z" fill="black"/>
</g>
<path d="M533.512 205.422C533.512 205.422 535.585 209.612 529.464 209.7C523.343 209.787 533.406 236.914 533.406 236.914L543.581 249.885L556.241 243.025L556.969 224.105L557.904 212.674C557.904 212.674 546.072 208.827 548.251 203.738C550.431 198.649 533.512 205.422 533.512 205.422Z" fill="#FBBEBE"/>
<path d="M570.258 316.025C570.258 316.025 577.731 323.39 586.449 313.618L579.755 306.502H571.286L570.258 316.025Z" fill="#575A89"/>
<path opacity="0.1" d="M571.068 306.502L570.041 316.025C570.041 316.025 577.513 323.39 586.231 313.618" fill="black"/>
<path d="M583.641 307.799C583.641 307.799 586.648 315.7 588.828 318.089C591.007 320.477 594.432 337.003 589.868 335.132C585.303 333.261 576.585 319.336 576.062 316.948C575.539 314.559 575.34 307.799 575.34 307.799H583.641Z" fill="#FBBEBE"/>
<path d="M518.361 348.334L558.626 349.893L553.956 332.843L533.674 332.432L518.361 348.334Z" fill="#575A89"/>
<path opacity="0.1" d="M523.959 348.334L564.231 349.893L559.56 332.843L539.272 332.432L523.959 348.334Z" fill="black"/>
<path d="M531.538 376.477C530.585 378.254 530.953 384.403 531.382 388.949C531.656 391.843 531.955 394.069 531.955 394.069C531.955 394.069 516.904 398.746 514.625 394.693C514.046 393.664 513.759 391.861 513.66 389.747C513.348 383.511 514.625 374.525 514.625 374.525C514.625 374.525 514.002 360.706 513.691 359.353C513.566 358.81 513.373 357.089 513.186 355.224C512.912 352.456 512.651 349.375 512.651 349.375L533.201 338.462C533.201 338.462 533.201 340.507 533.163 343.657C533.051 353.547 532.721 374.294 531.538 376.477Z" fill="#FBBEBE"/>
<path opacity="0.1" d="M531.955 394.069C531.955 394.069 516.904 398.746 514.625 394.692C514.046 393.663 513.759 391.861 513.66 389.747C516.773 389.273 526.251 387.964 531.382 388.949C531.656 391.843 531.955 394.069 531.955 394.069Z" fill="black"/>
<path d="M532.472 472.643H532.235C530.423 472.712 520.123 472.643 520.123 472.643C519.973 472.485 519.831 472.319 519.7 472.144C518.79 471.003 518.189 469.646 517.954 468.204C517.72 466.763 517.86 465.285 518.361 463.913C520.229 458.818 520.435 449.464 520.435 449.464C520.435 449.464 521.163 447.076 520.541 445.722C519.918 444.369 520.329 442.292 520.329 442.292C520.233 441.471 520.024 440.667 519.706 439.904C519.189 438.657 519.812 436.368 519.812 436.368C519.741 434.151 519.391 431.951 518.772 429.82C517.838 427.12 510.988 395.004 512.651 391.157C512.651 391.157 527.179 388.662 532.684 390.533L531.955 415.477C531.955 415.477 529.358 422.961 531.538 424.938C533.717 426.914 531.644 433.044 531.644 433.044C531.644 433.044 531.332 434.186 533.2 438.033C535.069 441.881 533.2 443.646 533.2 443.646V451.023C533.2 451.023 531.75 456.012 533.406 460.065C535.062 464.119 533.201 472.512 532.472 472.643Z" fill="#3F3D56"/>
<path d="M560.986 376.477C560.033 378.254 560.401 384.403 560.83 388.949C561.104 391.843 561.403 394.069 561.403 394.069C561.403 394.069 546.352 398.746 544.073 394.693C543.494 393.664 543.208 391.862 543.108 389.748C542.797 383.511 544.073 374.525 544.073 374.525C544.073 374.525 543.45 360.706 543.139 359.353C542.971 358.623 542.678 351.664 542.448 345.422C542.255 340.096 542.099 335.282 542.099 335.282L562.649 338.462C562.649 338.462 562.649 347.511 562.393 356.809C562.169 365.826 561.752 375.068 560.986 376.477Z" fill="#FBBEBE"/>
<path opacity="0.1" d="M561.403 394.069C561.403 394.069 546.352 398.746 544.073 394.692C543.494 393.663 543.208 391.861 543.108 389.747C546.222 389.273 555.699 387.964 560.83 388.949C561.104 391.843 561.403 394.069 561.403 394.069Z" fill="black"/>
<path d="M561.92 472.643H561.684C559.872 472.712 549.572 472.643 549.572 472.643C549.421 472.486 549.28 472.319 549.148 472.145C548.238 471.003 547.637 469.646 547.402 468.204C547.168 466.763 547.308 465.285 547.81 463.913C549.678 458.793 549.864 449.439 549.864 449.439C549.864 449.439 550.593 447.051 549.97 445.697C549.348 444.344 549.759 442.268 549.759 442.268C549.663 441.446 549.453 440.642 549.136 439.879C548.619 438.632 549.242 436.343 549.242 436.343C549.171 434.126 548.821 431.926 548.202 429.795C547.268 427.095 540.418 394.98 542.081 391.132C542.081 391.132 556.608 388.637 562.113 390.508L561.385 415.453C561.385 415.453 558.788 422.936 560.968 424.913C563.147 426.889 561.073 433.019 561.073 433.019C561.073 433.019 560.762 434.161 562.63 438.008C564.498 441.856 562.63 443.621 562.63 443.621V450.998C562.63 450.998 561.179 455.987 562.836 460.04C564.492 464.094 562.649 472.512 561.92 472.643Z" fill="#3F3D56"/>
<path opacity="0.1" d="M541.607 210.324C549.689 210.324 556.241 203.762 556.241 195.669C556.241 187.575 549.689 181.014 541.607 181.014C533.525 181.014 526.973 187.575 526.973 195.669C526.973 203.762 533.525 210.324 541.607 210.324Z" fill="black"/>
<path d="M541.607 209.7C549.689 209.7 556.241 203.139 556.241 195.045C556.241 186.952 549.689 180.391 541.607 180.391C533.525 180.391 526.973 186.952 526.973 195.045C526.973 203.139 533.525 209.7 541.607 209.7Z" fill="#FBBEBE"/>
<path opacity="0.1" d="M512.651 349.375L533.201 338.462C533.201 338.462 533.201 340.507 533.163 343.657C530.162 345.453 525.634 348.153 521.282 350.703C518.915 352.094 516.605 353.441 514.625 354.57C514.165 354.82 513.683 355.028 513.186 355.193C512.912 352.456 512.651 349.375 512.651 349.375Z" fill="black"/>
<path opacity="0.1" d="M562.649 338.437C562.649 338.437 562.649 347.486 562.393 356.784H562.319C560.783 356.838 559.246 356.79 557.717 356.64C555.033 356.353 552.885 355.643 552.112 354.233C550.549 351.489 546.172 347.997 542.473 345.397C542.28 340.071 542.124 335.257 542.124 335.257L562.649 338.437Z" fill="black"/>
<path d="M558.825 259.183C558.304 263.242 558.204 267.345 558.526 271.425C567.967 279.22 566.204 295.639 566.204 295.639C566.204 295.639 573.471 328.902 571.915 331.914C570.358 334.926 575.439 353.429 575.439 353.429C571.108 354.251 566.723 354.755 562.319 354.938C560.783 354.993 559.246 354.945 557.717 354.794C555.033 354.508 552.884 353.797 552.112 352.387C549.21 347.299 536.65 339.709 536.65 339.709C536.65 339.709 528.692 344.486 521.282 348.833C518.915 350.223 516.605 351.57 514.625 352.699C513.018 353.553 511.242 354.04 509.425 354.127C500.614 354.782 488.876 349.257 490.744 347.299C493.029 344.904 504.344 302.917 504.344 302.917C504.344 302.917 510.048 276.931 515.03 273.295C515.903 272.635 516.555 271.723 516.898 270.683C518.604 265.937 515.752 258.329 515.752 258.329C515.752 258.329 499.667 238.48 500.39 237.332C501.112 236.185 501.118 230.061 501.118 230.061C501.118 230.061 503.092 220.395 504.232 215.718C505.371 211.041 513.572 209.893 515.957 210.311C518.342 210.729 523.735 212.182 526.014 210.311C528.293 208.44 532.142 211.041 532.142 211.041L541.595 213.648L550.095 208.659C550.095 208.659 558.613 209.095 559.342 210.236C560.071 211.378 571.279 213.566 571.279 213.566C576.984 217.408 576.778 235.704 576.778 235.704C576.778 235.704 563.078 247.653 560.276 253.789C559.55 255.513 559.062 257.328 558.825 259.183Z" fill="#575A89"/>
<path d="M573.677 233.172L576.791 235.667L580.01 264.664L583.223 293.768C583.223 293.768 584.469 296.68 585.509 296.369C586.549 296.057 586.443 313.618 586.443 313.618C586.443 313.618 574.524 306.278 570.252 316.025L566.927 292.521C566.927 292.521 562.667 268.512 562.773 266.641C562.879 264.77 560.594 244.503 560.594 244.503L573.677 233.172Z" fill="#575A89"/>
<path d="M502.687 234.525L500.402 237.332C500.402 237.332 500.614 249.386 498.845 252.298C497.077 255.21 503.727 272.254 506.218 271.212C508.709 270.171 514.314 243.568 514.314 243.256C514.314 242.944 502.687 234.525 502.687 234.525Z" fill="#575A89"/>
<path d="M502.482 251.675C502.482 251.675 495.215 259.052 495.732 262.588C496.249 266.124 503.204 277.23 513.168 271.262C513.168 271.262 522.409 253.857 502.482 251.675Z" fill="#575A89"/>
<path opacity="0.1" d="M532.235 472.662C530.423 472.731 520.123 472.662 520.123 472.662C519.973 472.504 519.831 472.338 519.7 472.163C522.334 471.265 528.026 469.918 532.235 472.662Z" fill="black"/>
<path opacity="0.1" d="M561.696 472.662C559.884 472.731 549.584 472.662 549.584 472.662C549.433 472.504 549.292 472.338 549.161 472.163C551.782 471.265 557.474 469.918 561.696 472.662Z" fill="black"/>
<path opacity="0.1" d="M522.017 289.864C520.429 305.118 520.952 335.388 521.282 348.832C518.915 350.223 516.605 351.57 514.625 352.699C513.018 353.552 511.242 354.04 509.425 354.127C508.765 350.061 517.907 308.298 522.017 289.864Z" fill="black"/>
<path opacity="0.1" d="M523.959 281.209C523.916 281.427 523.162 284.745 522.017 289.865C522.465 285.493 523.088 282.356 523.959 281.209Z" fill="black"/>
<path opacity="0.1" d="M549.242 279.562C549.242 279.562 558.066 335.063 531.937 341.923C531.93 341.898 550.014 339.148 549.242 279.562Z" fill="black"/>
<path opacity="0.1" d="M562.319 354.938C560.783 354.992 559.246 354.944 557.717 354.794L550.668 278.908C555.164 281.851 560.544 335.706 562.319 354.938Z" fill="black"/>
<path opacity="0.1" d="M530.71 186.427C531.177 186.389 531.648 186.438 532.098 186.57C532.759 186.9 533.354 187.348 533.854 187.892C534.666 188.572 535.637 189.034 536.676 189.236C537.715 189.438 538.788 189.372 539.795 189.046C540.505 188.728 541.259 188.518 542.031 188.422C543.22 188.422 544.247 189.295 544.864 190.293C545.48 191.291 545.798 192.476 546.327 193.542C546.857 194.608 547.704 195.619 548.868 195.881C549.426 195.902 549.976 196.029 550.487 196.255C550.801 196.51 551.041 196.843 551.185 197.221C552.156 199.323 552.928 201.805 555.002 202.834C555.765 203.188 556.596 203.369 557.437 203.364C558.291 203.427 559.148 203.272 559.927 202.915C560.694 202.486 561.328 201.854 561.758 201.088C563.053 198.942 563.203 196.286 562.898 193.798C562.518 190.659 561.402 187.654 559.641 185.03C557.786 182.375 555.261 180.261 552.324 178.904C549.386 177.546 546.142 176.994 542.921 177.303C541.797 177.43 540.684 177.638 539.59 177.927C535.629 178.987 531.743 180.97 529.34 184.294C528.758 185.124 528.12 185.911 527.428 186.651C528.518 186.545 529.614 186.452 530.71 186.427Z" fill="black"/>
<path d="M530.71 185.803C531.177 185.766 531.648 185.815 532.098 185.947C532.759 186.276 533.354 186.724 533.854 187.269C534.666 187.948 535.637 188.411 536.676 188.612C537.715 188.814 538.788 188.749 539.795 188.422C540.505 188.104 541.259 187.894 542.031 187.799C543.22 187.799 544.247 188.672 544.864 189.67C545.48 190.667 545.798 191.852 546.327 192.919C546.857 193.985 547.704 194.995 548.868 195.257C549.426 195.279 549.976 195.406 550.487 195.631C550.801 195.886 551.041 196.22 551.185 196.598C552.156 198.699 552.928 201.181 555.002 202.21C555.765 202.564 556.596 202.745 557.437 202.74C558.291 202.803 559.148 202.649 559.927 202.291C560.694 201.863 561.328 201.23 561.758 200.464C563.053 198.319 563.203 195.662 562.898 193.174C562.518 190.035 561.402 187.031 559.641 184.406C557.786 181.752 555.261 179.638 552.324 178.28C549.386 176.923 546.142 176.37 542.921 176.68C541.797 176.806 540.684 177.015 539.59 177.303C535.629 178.364 531.743 180.347 529.34 183.67C528.758 184.5 528.12 185.288 527.428 186.028C528.518 185.922 529.614 185.828 530.71 185.803Z" fill="#3F3D56"/>
<path opacity="0.1" d="M514.83 220.7C514.83 220.7 515.559 226.525 513.068 227.978C510.577 229.431 514.83 220.7 514.83 220.7Z" fill="black"/>
<path opacity="0.1" d="M567.655 265.812C567.655 265.812 573.571 257.082 574.406 259.576C575.24 262.071 567.655 265.812 567.655 265.812Z" fill="black"/>
<path opacity="0.1" d="M568.073 268.718C568.073 268.718 573.907 261.547 574.468 264.353C575.028 267.159 568.073 268.718 568.073 268.718Z" fill="black"/>
<path opacity="0.1" d="M550.935 260.181C548.819 260.211 546.754 259.53 545.069 258.248H544.559C542.812 259.846 540.517 260.71 538.151 260.661C536.921 260.69 535.698 260.468 534.556 260.009C533.413 259.55 532.376 258.864 531.507 257.992H530.828C529.035 259.454 526.783 260.234 524.471 260.191C522.16 260.149 519.938 259.288 518.199 257.761L515.764 257.718C515.764 257.718 518.616 265.326 516.91 270.071L558.526 270.814C558.204 266.734 558.304 262.631 558.825 258.572V258.516L556.54 258.472C554.896 259.614 552.936 260.212 550.935 260.181Z" fill="black"/>
<path opacity="0.1" d="M550.935 261.428C548.819 261.458 546.754 260.777 545.069 259.495H544.559C542.812 261.093 540.517 261.958 538.151 261.908C536.921 261.937 535.698 261.715 534.556 261.256C533.413 260.797 532.376 260.111 531.507 259.239H530.828C529.035 260.701 526.783 261.481 524.471 261.438C522.16 261.396 519.938 260.535 518.199 259.009L515.764 258.965C515.764 258.965 518.616 266.573 516.91 271.318L558.526 272.061C558.204 267.981 558.304 263.878 558.825 259.819V259.763L556.54 259.719C554.896 260.861 552.936 261.459 550.935 261.428Z" fill="black"/>
<path d="M550.935 260.805C548.819 260.835 546.754 260.154 545.069 258.871H544.559C542.812 260.47 540.517 261.334 538.151 261.285C536.921 261.313 535.698 261.091 534.556 260.633C533.413 260.174 532.376 259.488 531.507 258.616H530.828C529.035 260.078 526.783 260.857 524.471 260.815C522.16 260.773 519.938 259.912 518.199 258.385L515.764 258.341C515.764 258.341 518.616 265.949 516.91 270.695L558.526 271.437C558.204 267.357 558.304 263.255 558.825 259.196V259.14L556.54 259.096C554.896 260.238 552.936 260.835 550.935 260.805Z" fill="#3F3D56"/>
<path opacity="0.1" d="M549.086 219.222C549.086 219.222 557.848 219.783 557.904 221.031C557.96 222.278 549.086 219.222 549.086 219.222Z" fill="black"/>
<path opacity="0.1" d="M527.802 213.903C527.802 213.903 519.04 214.464 518.984 215.711C518.928 216.959 527.802 213.903 527.802 213.903Z" fill="black"/>
<path opacity="0.1" d="M561.285 239.402C561.198 239.34 561.111 239.29 561.023 239.234C563.265 241.254 562.892 245.669 560.139 249.311C557.387 252.953 553.208 254.469 550.668 252.835C550.749 252.903 550.817 252.978 550.904 253.047C553.395 254.955 557.754 253.458 560.631 249.692C563.508 245.925 563.788 241.317 561.285 239.402Z" fill="black"/>
<path opacity="0.1" d="M513.155 248.844C510.939 244.84 511.225 240.419 513.734 238.741C513.641 238.785 513.541 238.822 513.448 238.872C510.696 240.406 510.334 245.002 512.614 249.143C514.893 253.284 519.003 255.379 521.755 253.87C521.846 253.818 521.933 253.759 522.017 253.695C519.27 254.943 515.372 252.847 513.155 248.844Z" fill="black"/>
<path opacity="0.1" d="M516.119 215.081L515.316 216.329L513.267 215.237L514.345 213.579C515.057 213.916 515.669 214.434 516.119 215.081Z" fill="black"/>
<path d="M503.105 261.235C503.105 261.235 504.929 252.641 502.482 249.91C500.035 247.179 500.819 232.861 504.556 233.172C508.292 233.484 513.896 244.809 512.962 247.204C512.028 249.598 508.497 261.858 508.497 261.858L503.105 261.235Z" fill="#FBBEBE"/>
<path opacity="0.1" d="M561.696 199.236C561.265 200.002 560.632 200.634 559.865 201.063C559.086 201.42 558.229 201.575 557.374 201.512C556.534 201.517 555.702 201.336 554.939 200.982C552.866 199.947 552.094 197.465 551.122 195.37C550.999 194.992 550.78 194.652 550.487 194.384C549.983 194.155 549.44 194.021 548.887 193.991C547.722 193.729 546.882 192.713 546.346 191.653C545.81 190.593 545.493 189.42 544.883 188.404C544.272 187.387 543.239 186.496 542.049 186.533C541.275 186.636 540.521 186.857 539.814 187.188C538.806 187.512 537.733 187.575 536.695 187.372C535.656 187.169 534.685 186.707 533.873 186.028C533.373 185.484 532.778 185.036 532.117 184.706C531.667 184.574 531.196 184.525 530.728 184.562C530.012 184.562 529.302 184.631 528.586 184.687C528.231 185.153 527.851 185.598 527.447 186.022C528.536 185.928 529.632 185.835 530.728 185.81C531.196 185.772 531.667 185.821 532.117 185.953C532.778 186.283 533.373 186.731 533.873 187.275C534.685 187.954 535.656 188.417 536.695 188.619C537.733 188.822 538.806 188.759 539.814 188.435C540.521 188.104 541.275 187.883 542.049 187.78C543.239 187.78 544.266 188.653 544.883 189.651C545.499 190.649 545.817 191.834 546.346 192.9C546.875 193.966 547.722 194.977 548.887 195.239C549.44 195.269 549.983 195.402 550.487 195.631C550.801 195.886 551.041 196.22 551.184 196.598C552.156 198.7 552.928 201.182 555.002 202.21C555.764 202.564 556.596 202.745 557.437 202.741C558.291 202.803 559.148 202.649 559.927 202.292C560.694 201.863 561.327 201.231 561.758 200.464C562.725 198.702 563.158 196.695 563.004 194.69C562.956 196.291 562.507 197.855 561.696 199.236Z" fill="black"/>
<path d="M505.863 268.051C508.959 268.051 511.468 266.348 511.468 264.247C511.468 262.146 508.959 260.443 505.863 260.443C502.768 260.443 500.259 262.146 500.259 264.247C500.259 266.348 502.768 268.051 505.863 268.051Z" fill="#575A89"/>
<path d="M323.183 475.992C429.282 475.992 515.291 389.859 515.291 283.609C515.291 177.36 429.282 91.2271 323.183 91.2271C217.085 91.2271 131.075 177.36 131.075 283.609C131.075 389.859 217.085 475.992 323.183 475.992Z" fill="#FD7634"/>
<path d="M423.982 380.287C423.982 410.657 376.307 382.881 325.195 382.881C274.082 382.881 222.384 409.509 222.384 379.14C222.384 361.822 238.861 337.739 262.5 320.247C280.309 307.063 302.179 297.622 324.149 297.622C346.741 297.622 368.872 307.843 386.526 321.874C408.807 339.566 423.982 363.338 423.982 380.287Z" fill="#444053"/>
<path d="M386.52 321.861C359.351 317.764 310.212 312.769 262.5 320.234C280.309 307.051 302.179 297.609 324.149 297.609C346.734 297.609 368.866 307.83 386.52 321.861Z" fill="#F6F8FB"/>
<path opacity="0.05" d="M222.384 147.807C222.384 147.807 164.515 184.856 164.989 242.807C165.462 300.759 222.384 147.807 222.384 147.807Z" fill="black"/>
<path d="M515.216 43.172C515.216 43.172 462.784 40.0103 468.967 76.8031C468.967 76.8031 467.722 83.301 473.625 86.2569C473.625 86.2569 473.719 83.5318 478.999 84.4547C480.881 84.77 482.794 84.8621 484.697 84.7291C487.269 84.554 489.714 83.5423 491.659 81.848C491.659 81.848 506.399 75.7554 512.134 51.6281C512.134 51.6281 516.375 46.3649 516.207 45.0179L507.358 48.7969C507.358 48.7969 510.378 55.1889 507.98 60.502C507.98 60.502 507.694 49.0339 505.994 49.2771C505.652 49.3332 501.398 51.4909 501.398 51.4909C501.398 51.4909 506.598 62.6285 502.644 70.7167C502.644 70.7167 504.132 56.9973 499.742 52.2954L493.515 55.9372C493.515 55.9372 499.593 67.4365 495.47 76.8218C495.47 76.8218 496.529 62.429 492.207 56.8227L486.559 61.2316C486.559 61.2316 492.269 72.5688 488.788 80.3514C488.788 80.3514 488.334 63.5951 485.339 62.3292C485.339 62.3292 480.4 66.6944 479.647 68.4842C479.647 68.4842 483.558 76.7095 481.135 81.0498C481.135 81.0498 479.647 69.8873 478.426 69.8249C478.426 69.8249 473.507 77.2209 472.99 82.297C472.99 82.297 473.208 74.7514 477.231 69.1203C477.231 69.1203 472.473 69.9372 469.702 73.0303C469.702 73.0303 470.468 67.7982 478.42 67.343C478.42 67.343 482.486 61.7305 483.576 61.3938C483.576 61.3938 475.637 60.7265 470.823 62.8655C470.823 62.8655 475.057 57.9328 485.027 60.1715L490.632 55.6192C490.632 55.6192 480.182 54.1849 475.749 55.7688C475.749 55.7688 480.849 51.4036 492.132 54.584L498.204 50.9484C498.204 50.9484 489.293 49.0277 483.981 49.7012C483.981 49.7012 489.585 46.6767 499.979 49.9568L504.338 48.005C504.338 48.005 497.805 46.7203 495.894 46.5208C493.982 46.3212 493.882 45.7849 493.882 45.7849C498.031 45.1095 502.285 45.604 506.168 47.213C506.168 47.213 515.372 43.752 515.216 43.172Z" fill="#28A352"/>
<path d="M461.439 26.8152C461.439 26.8152 437.776 25.3809 440.54 42.0063C440.54 42.0063 439.986 44.9435 442.645 46.278C442.645 46.278 442.682 45.0308 445.074 45.4673C445.923 45.6073 446.786 45.6492 447.646 45.592C448.809 45.5089 449.914 45.0517 450.796 44.2887C450.796 44.2887 457.453 41.5323 460.044 30.6317C460.044 30.6317 461.962 28.2558 461.912 27.6446L457.914 29.3533C457.914 29.3533 459.284 32.2406 458.207 34.6415C458.207 34.6415 458.076 29.4593 457.31 29.584C457.154 29.584 455.23 30.5818 455.23 30.5818C455.23 30.5818 457.584 35.6143 455.809 39.2686C455.809 39.2686 456.482 33.07 454.502 30.9435L451.687 32.5898C451.687 32.5898 454.433 37.7907 452.571 42.0312C452.571 42.0312 453.045 35.527 451.095 32.9952L448.542 34.9845C448.542 34.9845 451.12 40.1043 449.551 43.6214C449.551 43.6214 449.346 36.0508 447.988 35.4771C447.988 35.4771 445.759 37.4477 445.416 38.2584C445.416 38.2584 447.185 42 446.089 43.9395C446.089 43.9395 445.416 38.8945 444.843 38.8758C444.843 38.8758 442.62 42.2121 442.39 44.4882C442.497 42.37 443.156 40.3168 444.302 38.5328C443.02 38.7755 441.838 39.3891 440.902 40.2976C440.902 40.2976 441.244 37.9341 444.85 37.7283C444.85 37.7283 446.687 35.1965 447.179 35.0406C447.179 35.0406 443.592 34.7413 441.418 35.7079C441.418 35.7079 443.33 33.4753 447.839 34.4606L450.329 32.409C450.329 32.409 445.609 31.7854 443.604 32.4713C443.604 32.4713 445.908 30.5007 451.008 31.9413L453.748 30.295C453.748 30.295 449.725 29.4281 447.322 29.74C447.322 29.74 449.856 28.3743 454.551 29.8584L456.513 28.9729C456.513 28.9729 453.561 28.393 452.702 28.3057C451.843 28.2184 451.787 27.9751 451.787 27.9751C453.656 27.6637 455.575 27.8797 457.329 28.5988C457.329 28.5988 461.507 27.0772 461.439 26.8152Z" fill="#28A352"/>
<path opacity="0.1" d="M668.23 455.238C677.492 455.238 685 453.968 685 452.401C685 450.834 677.492 449.563 668.23 449.563C658.969 449.563 651.461 450.834 651.461 452.401C651.461 453.968 658.969 455.238 668.23 455.238Z" fill="#28A352"/>
<path opacity="0.1" d="M29.1244 502.439C38.386 502.439 45.8941 501.169 45.8941 499.602C45.8941 498.035 38.386 496.765 29.1244 496.765C19.8627 496.765 12.3546 498.035 12.3546 499.602C12.3546 501.169 19.8627 502.439 29.1244 502.439Z" fill="#FD7634"/>
<path opacity="0.1" d="M126.474 506C135.735 506 143.243 504.73 143.243 503.163C143.243 501.596 135.735 500.325 126.474 500.325C117.212 500.325 109.704 501.596 109.704 503.163C109.704 504.73 117.212 506 126.474 506Z" fill="#FD7634"/>
<path d="M631.527 487.048C645.356 487.048 656.567 485.15 656.567 482.808C656.567 480.466 645.356 478.567 631.527 478.567C617.699 478.567 606.488 480.466 606.488 482.808C606.488 485.15 617.699 487.048 631.527 487.048Z" fill="#28A352"/>
<path d="M641.877 475.88C643.02 474.946 643.853 473.687 644.268 472.269C644.573 470.841 643.963 469.12 642.599 468.596C641.067 468.01 639.43 469.077 638.19 470.149C636.951 471.222 635.525 472.444 633.9 472.219C634.736 471.462 635.361 470.499 635.715 469.427C636.068 468.355 636.138 467.209 635.918 466.102C635.847 465.643 635.653 465.212 635.357 464.855C634.504 463.944 632.966 464.331 631.945 465.048C628.707 467.33 627.804 471.733 627.785 475.699C627.461 474.271 627.735 472.781 627.729 471.334C627.723 469.887 627.318 468.216 626.085 467.449C625.32 467.04 624.461 466.838 623.594 466.863C622.137 466.807 620.518 466.95 619.521 468.016C618.276 469.345 618.606 471.565 619.683 473.005C620.761 474.446 622.392 475.381 623.893 476.385C625.101 477.104 626.131 478.087 626.907 479.26C626.998 479.425 627.073 479.598 627.131 479.778H636.254C638.295 478.738 640.187 477.427 641.877 475.88Z" fill="#28A352"/>
<path d="M36.9519 423.59C36.9519 423.59 40.3707 428.068 35.3702 434.815C30.3698 441.563 26.2475 447.287 27.8977 451.503C27.8977 451.503 35.4387 438.944 41.5974 438.763C47.7561 438.582 43.7022 431.142 36.9519 423.59Z" fill="#28A352"/>
<path opacity="0.1" d="M36.9519 423.59C37.2488 424.023 37.4836 424.495 37.6494 424.993C43.6399 432.04 46.8282 438.619 41.0743 438.781C35.7065 438.937 29.2427 448.541 27.7295 450.967C27.7824 451.155 27.8447 451.34 27.9163 451.522C27.9163 451.522 35.4574 438.962 41.6161 438.781C47.7747 438.601 43.7022 431.142 36.9519 423.59Z" fill="black"/>
<path d="M43.3099 429.297C43.3099 430.875 43.1293 432.153 42.9114 432.153C42.6934 432.153 42.519 430.906 42.519 429.297C42.519 427.688 42.737 428.461 42.9612 428.461C43.1854 428.461 43.3099 427.719 43.3099 429.297Z" fill="#FFD037"/>
<path d="M45.4645 431.18C44.0821 431.934 42.8802 432.39 42.7744 432.196C42.6685 432.003 43.7085 431.242 45.0909 430.488C46.4733 429.733 45.9253 430.282 46.0312 430.488C46.1371 430.693 46.8719 430.425 45.4645 431.18Z" fill="#FFD037"/>
<path d="M18.8808 423.59C18.8808 423.59 15.4621 428.068 20.4563 434.815C25.4505 441.563 29.5791 447.287 27.9289 451.503C27.9289 451.503 20.3816 438.944 14.2291 438.763C8.07668 438.582 12.1243 431.142 18.8808 423.59Z" fill="#28A352"/>
<path opacity="0.1" d="M18.8808 423.59C18.5812 424.021 18.3462 424.494 18.1834 424.993C12.1928 432.04 8.9983 438.619 14.7584 438.781C20.12 438.937 26.59 448.541 28.097 450.967C28.0462 451.155 27.9859 451.34 27.9164 451.522C27.9164 451.522 20.3691 438.962 14.2167 438.781C8.06422 438.601 12.1243 431.142 18.8808 423.59Z" fill="black"/>
<path d="M12.5228 429.297C12.5228 430.875 12.6972 432.153 12.9151 432.153C13.1331 432.153 13.3075 430.906 13.3075 429.297C13.3075 427.688 13.0895 428.461 12.8716 428.461C12.6536 428.461 12.5228 427.719 12.5228 429.297Z" fill="#FFD037"/>
<path d="M10.3371 431.18C11.7195 431.934 12.9276 432.39 13.0335 432.196C13.1393 432.003 12.0994 431.242 10.717 430.488C9.33454 429.733 9.87631 430.282 9.77667 430.488C9.67704 430.693 8.95468 430.425 10.3371 431.18Z" fill="#FFD037"/>
<path d="M13.6125 450.936C13.6125 450.936 23.1775 450.643 26.0669 448.585C28.9563 446.527 40.7816 444.076 41.4978 447.338C42.2139 450.599 55.87 463.738 45.0722 463.826C34.2743 463.913 19.9829 462.136 17.106 460.383C14.229 458.631 13.6125 450.936 13.6125 450.936Z" fill="#A8A8A8"/>
<path opacity="0.2" d="M45.2528 462.71C34.4549 462.797 20.1635 461.02 17.2866 459.267C15.0946 457.933 14.2228 453.137 13.9301 450.923H13.6125C13.6125 450.923 14.2353 458.65 17.0935 460.402C19.9518 462.154 34.2618 463.932 45.0597 463.844C48.1733 463.844 49.2506 462.703 49.1945 461.063C48.7586 462.067 47.5755 462.691 45.2528 462.71Z" fill="black"/>
<path d="M254.884 258.385C258.539 258.179 275.745 256.882 286.673 250.64C288.429 249.606 290.411 249.021 292.446 248.937C295.921 248.838 299.919 250.291 297.359 258.422C293.212 271.724 269.132 286.691 254.186 285.861C239.814 285.063 222.764 279.263 211.505 258.871C210.427 256.91 209.895 254.693 209.967 252.455C210.098 248.339 211.593 243.182 219.308 248.931C229.732 256.695 249.51 258.167 253.477 258.385C253.945 258.41 254.415 258.41 254.884 258.385Z" fill="#444053"/>
<path d="M393.127 258.385C396.782 258.179 413.988 256.882 424.916 250.64C426.672 249.606 428.654 249.021 430.689 248.937C434.164 248.838 438.162 250.291 435.602 258.422C431.455 271.724 407.375 286.691 392.429 285.861C378.057 285.063 361.007 279.263 349.748 258.871C348.67 256.91 348.138 254.693 348.21 252.455C348.341 248.339 349.836 243.182 357.551 248.931C367.975 256.695 387.753 258.167 391.719 258.385C392.188 258.41 392.658 258.41 393.127 258.385Z" fill="#444053"/>
</g>
<defs>
<linearGradient id="paint0_linear" x1="555.55" y1="472.687" x2="555.55" y2="164.601" gradientUnits="userSpaceOnUse">
<stop stop-color="#808080" stop-opacity="0.25"/>
<stop offset="0.54" stop-color="#808080" stop-opacity="0.12"/>
<stop offset="1" stop-color="#808080" stop-opacity="0.1"/>
</linearGradient>
<clipPath id="clip0">
<rect width="685" height="506" fill="white"/>
</clipPath>
</defs>
</svg>
