<svg width="701" height="522" viewBox="0 0 701 522" fill="none" xmlns="http://www.w3.org/2000/svg">
<g clip-path="url(#clip0)">
<path opacity="0.1" d="M70.5103 52.2687C66.1474 54.0801 61.6696 56.4052 59.2721 60.481C56.7326 64.7865 57.0366 70.133 57.5093 75.1145C61.6291 118.319 72.4824 164.267 53.7407 203.403C44.6434 222.389 29.4272 237.604 17.3244 254.846C5.22169 272.089 -3.91615 293.617 1.70298 313.901C8.5648 338.686 34.1751 352.428 51.4377 371.502C62.7367 383.972 70.6589 399.126 81.2015 412.246C91.7441 425.365 106.19 436.923 123.021 437.694C147.226 438.809 166.92 417.89 190.653 413.043C214.967 408.082 239.449 420.708 259.163 435.822C278.877 450.935 296.809 469.245 319.778 478.681C345.145 489.111 373.741 487.515 400.445 493.781C424.759 499.493 447.141 511.639 471.279 518.114C495.417 524.589 523.708 524.197 542.409 507.658C566.784 486.028 564.865 447.501 580.433 418.89C594.893 392.306 623.198 376.436 642.25 352.935C676.532 310.636 675.411 245.985 646.302 199.982C617.194 153.98 564.467 126.126 510.552 118.873C486.238 115.608 461.202 116.054 437.827 108.626C375.26 88.7544 338.027 17.5538 274.15 2.73783C233.546 -6.6641 194.057 9.61861 159.471 29.6594C129.45 47.0574 101.753 39.2979 70.5103 52.2687Z" fill="#FD7634"/>
<path d="M131.482 191.844C131.482 191.844 108.432 213.615 83.6926 214.264C73.304 214.471 63.2628 218.045 55.0769 224.45C51.2075 227.511 47.6266 230.921 44.3789 234.636" stroke="#535461" stroke-width="2" stroke-miterlimit="10"/>
<path d="M28.7779 235.17C32.1008 233.48 44.7843 234.602 44.7843 234.602C44.7843 234.602 38.2061 245.518 34.8833 247.208C34.0875 247.68 33.2033 247.984 32.2854 248.1C31.3676 248.216 30.4357 248.142 29.5476 247.882C28.6595 247.623 27.8342 247.184 27.1227 246.592C26.4112 246 25.8287 245.269 25.4115 244.442C24.9942 243.616 24.7511 242.713 24.6971 241.788C24.6431 240.864 24.7794 239.939 25.0976 239.069C25.4157 238.2 25.909 237.405 26.5467 236.734C27.1844 236.064 27.9531 235.531 28.8049 235.17H28.7779Z" fill="#28A352"/>
<path d="M42.13 215.873C45.8378 216.265 55.8739 224.105 55.8739 224.105C55.8739 224.105 44.3925 229.688 40.7185 229.303C38.9995 229.043 37.447 228.13 36.3838 226.754C35.3207 225.377 34.8289 223.643 35.0107 221.913C35.1926 220.183 36.0341 218.589 37.3601 217.464C38.6862 216.339 40.3947 215.769 42.13 215.873Z" fill="#28A352"/>
<path d="M73.7915 200.32C76.7902 202.53 81.5043 214.372 81.5043 214.372C81.5043 214.372 68.8005 213.406 65.8018 211.202C64.4503 210.109 63.5716 208.537 63.3484 206.813C63.1253 205.088 63.5749 203.344 64.6038 201.942C65.6326 200.541 67.1616 199.591 68.8728 199.288C70.5839 198.986 72.3456 199.356 73.7915 200.32Z" fill="#28A352"/>
<path d="M100.395 193.96C103.724 195.629 110.37 206.505 110.37 206.505C110.37 206.505 97.6866 207.701 94.357 206.032C93.5169 205.664 92.7603 205.13 92.1332 204.461C91.5061 203.792 91.0218 203.002 90.7096 202.139C90.3974 201.276 90.264 200.359 90.3174 199.443C90.3708 198.528 90.6099 197.632 91.0203 196.812C91.4306 195.991 92.0035 195.263 92.7041 194.672C93.4047 194.08 94.2183 193.637 95.0954 193.37C95.9725 193.103 96.8946 193.018 97.8057 193.119C98.7168 193.221 99.5977 193.507 100.395 193.96Z" fill="#28A352"/>
<path d="M62.9316 236.414C64.0392 232.852 60.7974 220.523 60.7974 220.523C60.7974 220.523 51.153 228.851 50.0454 232.413C49.7333 233.272 49.5988 234.187 49.65 235.1C49.7013 236.013 49.9373 236.907 50.3436 237.726C50.75 238.545 51.3183 239.274 52.0141 239.867C52.7099 240.46 53.5188 240.905 54.3918 241.176C55.2647 241.447 56.1836 241.538 57.0926 241.444C58.0017 241.349 58.8821 241.07 59.6805 240.625C60.479 240.18 61.1788 239.577 61.7376 238.853C62.2964 238.13 62.7026 237.3 62.9316 236.414Z" fill="#28A352"/>
<path d="M93.9515 228.553C93.9515 224.822 87.164 214.034 87.164 214.034C87.164 214.034 80.4508 224.849 80.4575 228.593C80.4629 230.386 81.1796 232.103 82.45 233.367C83.7203 234.631 85.4403 235.338 87.2315 235.332C89.0227 235.327 90.7384 234.61 92.0012 233.338C93.264 232.067 93.9704 230.345 93.965 228.553H93.9515Z" fill="#28A352"/>
<path d="M123.054 216.819C123.675 213.142 118.812 201.361 118.812 201.361C118.812 201.361 110.363 210.905 109.749 214.582C109.541 216.307 110.005 218.046 111.045 219.437C112.084 220.829 113.62 221.766 115.332 222.055C117.044 222.344 118.801 221.961 120.239 220.988C121.677 220.014 122.685 218.524 123.054 216.826V216.819Z" fill="#28A352"/>
<path d="M161.435 134.189C161.435 134.189 133.67 118.927 125.417 95.5468C122.027 85.7155 115.54 77.2506 106.932 71.4235C102.824 68.688 98.4749 66.335 93.938 64.394" stroke="#535461" stroke-width="2" stroke-miterlimit="10"/>
<path d="M88.6703 49.6935C91.2975 52.3363 94.1273 64.7663 94.1273 64.7663C94.1273 64.7663 81.7274 61.8599 79.1002 59.2103C77.94 57.9209 77.3197 56.2343 77.3678 54.4998C77.4159 52.7653 78.1287 51.1158 79.3586 49.8927C80.5885 48.6697 82.2412 47.9669 83.9746 47.9298C85.708 47.8927 87.3893 48.5242 88.6703 49.6935Z" fill="#28A352"/>
<path d="M111.127 56.4724C111.897 60.1223 107.527 72.0927 107.527 72.0927C107.527 72.0927 98.6997 62.907 97.9297 59.2503C97.7012 58.366 97.6541 57.4445 97.7914 56.5414C97.9287 55.6384 98.2474 54.7726 98.7284 53.9962C99.2093 53.2199 99.8425 52.5492 100.59 52.0246C101.337 51.5 102.183 51.1325 103.076 50.9441C103.969 50.7557 104.891 50.7505 105.786 50.9287C106.681 51.1069 107.531 51.4648 108.284 51.9809C109.037 52.4969 109.678 53.1604 110.168 53.9312C110.657 54.702 110.986 55.5642 111.133 56.4656L111.127 56.4724Z" fill="#28A352"/>
<path d="M135.643 81.88C134.467 85.415 124.654 93.5462 124.654 93.5462C124.654 93.5462 121.669 81.1567 122.844 77.615C123.409 75.912 124.627 74.5034 126.23 73.6991C127.833 72.8948 129.689 72.7607 131.391 73.3263C133.093 73.8919 134.5 75.1108 135.304 76.7149C136.107 78.3191 136.241 80.177 135.676 81.88H135.643Z" fill="#28A352"/>
<path d="M149.88 105.233C149.319 108.917 141.019 118.589 141.019 118.589C141.019 118.589 135.98 106.882 136.541 103.199C136.634 102.288 136.911 101.406 137.356 100.606C137.8 99.8063 138.401 99.1049 139.125 98.5447C139.848 97.9844 140.677 97.5769 141.562 97.3469C142.447 97.1168 143.369 97.0691 144.274 97.2065C145.178 97.344 146.044 97.6637 146.821 98.1464C147.598 98.6291 148.269 99.2646 148.793 100.015C149.318 100.764 149.684 101.613 149.871 102.509C150.057 103.405 150.06 104.329 149.88 105.226V105.233Z" fill="#28A352"/>
<path d="M97.9835 82.6035C101.712 82.563 112.437 75.6822 112.437 75.6822C112.437 75.6822 101.556 69.0583 97.8282 69.0988C96.0369 69.1194 94.3273 69.8513 93.0753 71.1335C91.8233 72.4156 91.1315 74.143 91.1521 75.9357C91.1727 77.7283 91.904 79.4393 93.1851 80.6923C94.4663 81.9453 96.1923 82.6377 97.9835 82.6171V82.6035Z" fill="#28A352"/>
<path d="M114.976 109.734C118.515 108.579 126.694 98.805 126.694 98.805C126.694 98.805 114.328 95.7431 110.789 96.8989C109.915 97.1483 109.101 97.5715 108.395 98.143C107.689 98.7146 107.105 99.4228 106.679 100.225C106.253 101.028 105.992 101.908 105.914 102.814C105.835 103.719 105.94 104.631 106.222 105.495C106.503 106.359 106.956 107.158 107.553 107.843C108.151 108.527 108.88 109.085 109.697 109.481C110.514 109.877 111.403 110.105 112.31 110.149C113.217 110.194 114.124 110.055 114.976 109.741V109.734Z" fill="#28A352"/>
<path d="M135.102 133.837C138.79 133.296 148.502 125.05 148.502 125.05C148.502 125.05 136.831 119.94 133.15 120.481C132.244 120.575 131.366 120.851 130.569 121.293C129.772 121.735 129.072 122.334 128.513 123.054C127.953 123.774 127.545 124.599 127.312 125.481C127.08 126.363 127.028 127.283 127.161 128.185C127.293 129.088 127.606 129.954 128.082 130.732C128.558 131.51 129.186 132.184 129.928 132.712C130.671 133.241 131.513 133.614 132.403 133.808C133.293 134.003 134.214 134.015 135.109 133.844L135.102 133.837Z" fill="#28A352"/>
<path d="M352.506 504.507C487.532 504.507 596.992 394.96 596.992 259.827C596.992 124.694 487.532 15.147 352.506 15.147C217.48 15.147 108.02 124.694 108.02 259.827C108.02 394.96 217.48 504.507 352.506 504.507Z" fill="url(#paint0_linear)"/>
<path d="M352.506 500.451C485.294 500.451 592.94 392.72 592.94 259.827C592.94 126.933 485.294 19.2021 352.506 19.2021C219.718 19.2021 112.072 126.933 112.072 259.827C112.072 392.72 219.718 500.451 352.506 500.451Z" fill="url(#paint1_linear)"/>
<path d="M352.506 451.11C458.065 451.11 543.638 365.47 543.638 259.827C543.638 154.184 458.065 68.5439 352.506 68.5439C246.947 68.5439 161.375 154.184 161.375 259.827C161.375 365.47 246.947 451.11 352.506 451.11Z" fill="#DDE1EC"/>
<path opacity="0.3" d="M357.909 102.34H347.103V271.318H357.909V102.34Z" fill="#535461"/>
<g opacity="0.1">
<path opacity="0.1" d="M516.622 255.772H363.987V269.291H516.622V255.772Z" fill="black"/>
<path opacity="0.1" d="M256.225 205.196L249.959 217.172L345.998 267.505L352.265 255.53L256.225 205.196Z" fill="black"/>
<path opacity="0.1" d="M352.506 282.809C363.696 282.809 372.767 273.731 372.767 262.532C372.767 251.333 363.696 242.254 352.506 242.254C341.316 242.254 332.245 251.333 332.245 262.532C332.245 273.731 341.316 282.809 352.506 282.809Z" fill="black"/>
</g>
<path d="M516.622 253.068H363.987V266.587H516.622V253.068Z" fill="#535461"/>
<path d="M352.309 252.841L256.27 202.508L250.003 214.483L346.043 264.817L352.309 252.841Z" fill="#535461"/>
<path d="M352.506 280.105C363.696 280.105 372.767 271.026 372.767 259.827C372.767 248.628 363.696 239.55 352.506 239.55C341.316 239.55 332.245 248.628 332.245 259.827C332.245 271.026 341.316 280.105 352.506 280.105Z" fill="#535461"/>
<g opacity="0.1">
<path opacity="0.1" d="M176.219 282.808C176.219 177.163 261.79 91.525 367.351 91.525C396.979 91.4987 426.207 98.3771 452.718 111.615C479.23 124.853 502.298 144.088 520.094 167.795C487.568 108.639 424.758 68.5439 352.493 68.5439C246.931 68.5439 161.361 154.182 161.361 259.827C161.299 301.329 174.786 341.715 199.77 374.84C184.276 346.647 176.174 314.984 176.219 282.808Z" fill="black"/>
</g>
<path d="M529.103 119.116C526.834 116.933 507.734 131.282 507.734 131.282C507.734 131.282 500.933 132.526 502.554 137.197C504.175 141.867 495.429 168.025 495.429 168.025L491.87 163.043C492.214 157.197 490.607 153.054 489.04 150.472C488.912 150.262 488.783 150.059 488.655 149.87L489.276 149.654C489.04 146.463 483.941 141.604 481.233 139.224C481.233 138.88 481.233 138.548 481.233 138.197C481.401 134.385 482.928 130.363 481.233 126.909C479.314 122.969 473.702 120.988 473.229 116.662C472.946 114.08 474.688 111.749 475.458 109.261C477.295 103.313 473.479 97.2435 469.832 92.1201C468.597 90.1992 467.094 88.4648 465.368 86.9696C463.724 85.7669 461.919 84.8021 460.005 84.1038C454.663 81.9408 449.199 80.8526 443.688 79.3724C438.4 77.9665 433.524 77.2973 428.155 79.0615C426.881 79.4053 425.717 80.0736 424.778 81.0013C423.501 82.4343 423.333 84.4755 422.495 86.1856C421.144 88.9365 418.233 90.579 415.66 92.3431C413.087 94.1073 410.507 96.527 410.494 99.5686C410.494 103.888 415.424 106.605 417.072 110.627C418.612 114.371 417.072 118.541 416.214 122.489C415.856 123.765 415.821 125.11 416.113 126.402C416.453 127.366 416.965 128.259 417.626 129.038C418.645 130.39 419.74 131.647 420.827 132.932L420.327 133.128C411.264 132.195 405.435 143.712 405.435 143.712C405.854 143.8 406.252 143.902 406.644 144.017L406.259 144.517C403.52 148.076 401.282 151.995 399.607 156.163L392.177 166.126C392.177 166.126 390.557 141.212 394.447 135.608C398.337 130.005 390.887 126.578 390.887 126.578C390.887 126.578 374.678 108.518 372.429 110.072C370.18 111.627 377.934 131.249 384.735 134.365C384.735 134.365 385.41 140.59 384.059 144.638C383.242 147.2 378.879 174.223 378.879 174.223C378.879 174.223 374.996 196.954 392.806 185.714C404.375 178.427 411.851 165.882 415.66 158.001C415.926 157.447 416.176 156.917 416.41 156.413C416.586 157.249 416.706 158.095 416.768 158.947L417.443 184.99C417.614 191.432 416.209 197.818 413.35 203.591L405.415 219.698L406.3 219.969L405.766 220.739C400.539 228.438 391.651 245.748 409.947 254.569L434.26 257.685L432.963 263.91C432.963 263.91 422.927 282.903 420.01 295.982C418.197 303.991 415.367 311.735 411.588 319.024L412.337 319.422C412.182 319.598 412.02 319.781 411.865 319.97C410.39 321.629 409.416 323.673 409.055 325.864L405.759 330.541C405.759 330.541 404.462 349.845 407.056 354.523C408.474 357.078 413.182 358.7 417.187 359.646C423.13 361.059 427.925 354.915 424.771 349.852L424.731 349.784H424.67C423.994 346.641 421.928 336.888 422.603 333.184C422.792 332.13 422.968 331.082 423.056 330.014C423.218 328.611 423.644 327.251 424.312 326.006C424.42 325.796 424.535 325.594 424.65 325.391L425.001 325.539C426.088 326.006 427.162 326.445 428.182 326.83C426.601 328.27 425.48 331.251 426.831 337.381C426.831 337.381 426.959 352.718 428.128 355.131C429.296 357.544 442.371 360.734 444.641 358.247C446.91 355.759 443.182 347.189 443.182 347.189L443.067 347.27C442.317 342.302 441.392 333.407 443.668 329.906C444.587 328.493 445.478 327.033 446.275 325.668L446.768 324.823C450.996 326.932 455.467 328.52 457.912 327.419C457.912 327.419 468.596 302.504 467.948 299.395C467.3 296.286 484.461 261.091 484.461 261.091C484.461 261.091 499.029 244.869 481.226 233.69C475.573 230.128 471.453 227.735 468.461 226.12L465.956 213.007C464.667 206.133 464.898 199.059 466.631 192.283L469.332 181.969L469.555 181.09C469.555 181.09 476.356 167.079 476.032 160.536C476.007 160.028 476.064 159.519 476.201 159.029C476.275 159.34 476.356 159.664 476.444 160.002C478.231 166.802 480.585 173.44 483.482 179.847C488.648 191.513 496.314 190.587 500.514 188.931C501.414 188.583 502.212 188.016 502.838 187.282C503.464 186.548 503.898 185.67 504.101 184.727C505.614 177.467 509.767 157.129 510.031 151.512C510.266 147.12 510.808 142.75 511.651 138.434C522.309 132.195 531.372 121.299 529.103 119.116Z" fill="url(#paint2_linear)"/>
<path d="M449.821 318.659C449.821 318.659 448.396 321.518 446.444 324.951C445.681 326.303 444.83 327.756 443.959 329.156C440.872 334.096 443.959 349.838 443.959 349.838L437.205 350.764L430.451 347.385L429.215 335.962V327.608L436.914 318.99L440.291 315.259L449.821 318.659Z" fill="#F8BDC5"/>
<g opacity="0.1">
<path opacity="0.1" d="M449.821 318.659C449.821 318.659 448.396 321.518 446.444 324.951C443.462 323.357 440.58 321.582 437.813 319.639L437.218 319.22L436.901 318.99L440.278 315.259L449.821 318.659Z" fill="black"/>
</g>
<path d="M482.84 260.922C482.84 260.922 466.489 295.806 467.111 298.895C467.732 301.984 457.547 326.682 457.547 326.682C455.224 327.777 450.956 326.202 446.93 324.113C443.895 322.494 440.963 320.688 438.15 318.706L437.556 318.287L437.198 318.03L464.038 243.626L440.291 226.194L438.535 224.903L427.918 217.062L460.336 222.929C460.336 222.929 461.464 222.787 467.428 226.126C470.292 227.728 474.27 230.128 479.767 233.737C496.712 244.87 482.84 260.922 482.84 260.922Z" fill="#5E52AD"/>
<g opacity="0.03">
<path opacity="0.03" d="M482.84 260.922C482.84 260.922 466.489 295.806 467.111 298.895C467.732 301.984 457.547 326.682 457.547 326.682C455.224 327.777 450.956 326.202 446.93 324.113C443.895 322.494 440.963 320.688 438.15 318.706L437.556 318.287L437.198 318.03L464.038 243.626L440.291 226.194L438.535 224.903L427.918 217.062L460.336 222.929C460.336 222.929 461.464 222.787 467.428 226.126C470.292 227.728 474.27 230.128 479.767 233.737C496.712 244.87 482.84 260.922 482.84 260.922Z" fill="black"/>
</g>
<path d="M433.166 324.83C433.166 324.83 425.142 323.593 427.925 336.563C427.925 336.563 428.047 351.771 429.161 354.137C430.275 356.503 442.736 359.693 444.891 357.226C447.045 354.759 443.499 346.27 443.499 346.27C443.499 346.27 434.402 352.907 431.93 345.803C429.458 338.699 433.166 324.83 433.166 324.83Z" fill="#5D3E53"/>
<path d="M427.608 322.363C426.732 323.197 426.02 324.187 425.507 325.282C424.87 326.523 424.465 327.87 424.312 329.257C424.231 330.311 424.062 331.359 423.886 332.4C423.117 336.8 426.068 349.838 426.068 349.838L414.343 351.69L410.028 347.06L409.103 336.874C410.254 333.382 410.878 329.737 410.953 326.06C410.953 323.403 412.304 321.031 413.655 319.301C414.57 318.146 415.62 317.105 416.782 316.198C416.782 316.198 430.08 320.2 427.608 322.363Z" fill="#F8BDC5"/>
<g opacity="0.1">
<path opacity="0.1" d="M427.608 322.363C426.732 323.197 426.02 324.187 425.507 325.283C420.705 323.113 415.66 320.376 413.823 319.362L413.681 319.287C414.597 318.133 415.647 317.091 416.808 316.185C416.808 316.185 430.08 320.2 427.608 322.363Z" fill="black"/>
</g>
<path d="M465.557 251.662C465.557 251.662 457.851 266.174 452.907 278.212C449.665 286.12 442.966 304.951 438.724 316.942L438.103 318.713C436.239 324.019 434.996 327.608 434.996 327.608C434.174 327.613 433.357 327.492 432.572 327.25C431.842 327.054 431.025 326.79 430.154 326.466L429.175 326.094C428.202 325.715 427.148 325.276 426.142 324.816C421.239 322.626 416.011 319.774 414.114 318.733L413.398 318.334C417.018 311.076 419.72 303.395 421.441 295.468C424.217 282.504 433.781 263.7 433.781 263.7L435.017 257.523L411.878 254.434C394.447 245.714 402.916 228.526 407.893 220.895C408.742 219.57 409.66 218.291 410.642 217.062L429.154 221.118C429.154 221.118 432.072 222.051 438.556 224.923L441.534 226.275C445.167 227.945 449.638 230.094 455.041 232.852C473.263 242.071 465.557 251.662 465.557 251.662Z" fill="#5E52AD"/>
<path d="M425.953 348.913C426.613 350.026 426.929 351.309 426.862 352.602C426.794 353.895 426.346 355.139 425.573 356.177C424.8 357.214 423.737 358 422.519 358.435C421.301 358.87 419.981 358.933 418.727 358.619C414.938 357.679 410.446 356.07 409.096 353.536C406.63 348.906 407.86 329.764 407.86 329.764L411.102 324.979C411.102 324.979 409.406 346.128 413.418 347.96C417.43 349.791 425.913 348.818 425.913 348.818L425.953 348.913Z" fill="#5D3E53"/>
<path d="M429.235 80.4333C428.003 80.7764 426.884 81.4412 425.994 82.3596C424.778 83.7791 424.643 85.8068 423.819 87.5033C422.536 90.207 419.767 91.863 417.308 93.5865C414.85 95.3101 412.398 97.7366 412.385 100.751C412.385 105.036 417.112 107.727 418.652 111.708C420.118 115.425 418.652 119.555 417.835 123.469C417.494 124.736 417.462 126.066 417.74 127.348C418.063 128.299 418.552 129.185 419.186 129.964C422.164 134.02 425.865 137.615 427.858 142.232C429.371 145.74 429.789 149.613 430.188 153.418C430.762 158.893 431.336 164.469 430.296 169.877C430.195 170.2 430.195 170.547 430.296 170.87C430.473 171.18 430.752 171.419 431.086 171.546C433.051 172.502 435.189 173.05 437.372 173.157C439.554 173.265 441.736 172.93 443.785 172.172C445.835 171.415 447.71 170.25 449.299 168.749C450.887 167.247 452.156 165.44 453.029 163.435C454.38 160.373 454.9 156.676 457.574 154.689C457.886 154.431 458.262 154.26 458.662 154.196C459.292 154.213 459.903 154.418 460.418 154.784C463.889 156.663 468.097 156.717 471.967 155.946C474.303 155.48 476.694 154.648 478.241 152.823C481.287 149.201 479.591 143.787 479.794 139.062C479.956 135.284 481.408 131.296 479.794 127.876C477.971 123.969 472.615 122.009 472.169 117.737C471.899 115.182 473.56 112.864 474.297 110.403C476.046 104.503 472.412 98.4869 468.941 93.4108C467.773 91.5173 466.343 89.7991 464.693 88.3077C463.136 87.1211 461.416 86.165 459.587 85.4688C454.501 83.3262 449.314 82.2447 444.053 80.7848C439.015 79.3451 434.375 78.6759 429.235 80.4333Z" fill="#85555C"/>
<path d="M455.068 168.613H437.171V139.589C437.703 136.802 438.014 133.977 438.103 131.14C438.103 130.187 438.103 129.214 438.103 128.234C437.934 124.773 437.218 121.319 435.341 119.21C430.404 113.654 451.381 114.58 451.381 114.58C452.025 117.132 452.86 119.631 453.88 122.056C455.4 125.84 457.421 129.403 459.891 132.647C462.063 135.535 464.847 137.905 468.042 139.589C480.361 145.767 455.068 168.613 455.068 168.613Z" fill="#F8BDC5"/>
<g opacity="0.1">
<path opacity="0.1" d="M453.86 122.056C452.042 124.427 449.612 126.256 446.831 127.345C444.051 128.434 441.025 128.741 438.083 128.234C437.914 124.773 437.198 121.319 435.32 119.21C430.383 113.654 451.361 114.58 451.361 114.58C452.004 117.132 452.84 119.631 453.86 122.056Z" fill="black"/>
</g>
<path d="M440.872 127.558C449.903 127.558 457.223 120.232 457.223 111.194C457.223 102.157 449.903 94.8306 440.872 94.8306C431.842 94.8306 424.521 102.157 424.521 111.194C424.521 120.232 431.842 127.558 440.872 127.558Z" fill="#F8BDC5"/>
<path d="M508.741 139.285C507.938 143.567 507.423 147.898 507.201 152.249C506.951 157.812 502.993 177.981 501.548 185.18C501.366 186.103 500.958 186.966 500.362 187.694C499.766 188.421 498.999 188.99 498.131 189.35C494.119 190.992 486.825 191.912 481.921 180.347C479.157 173.983 476.914 167.405 475.215 160.678C474.614 158.416 474.163 156.118 473.864 153.797L484.67 147.93C485.687 148.882 486.549 149.989 487.223 151.208C488.716 153.77 490.249 157.88 489.925 163.672L493.302 168.613C493.302 168.613 501.629 142.678 500.055 138.048C498.482 133.418 504.992 132.181 504.992 132.181C504.992 132.181 523.194 117.987 525.355 120.143C527.516 122.3 518.919 133.107 508.741 139.285Z" fill="#F8BDC5"/>
<path d="M420.206 151.634C419.363 154.049 418.393 156.418 417.302 158.731C413.668 166.552 406.55 179.009 395.527 186.214C378.562 197.326 382.263 174.791 382.263 174.791C382.263 174.791 386.417 147.998 387.2 145.463C388.436 141.448 387.815 135.277 387.815 135.277C381.338 132.188 373.936 112.742 376.09 111.194C378.245 109.647 393.65 127.558 393.65 127.558C393.65 127.558 400.748 130.938 397.027 136.514C393.305 142.09 394.866 166.768 394.866 166.768L402.004 156.906C403.592 152.791 405.725 148.909 408.346 145.362C409.697 143.517 410.642 142.401 410.642 142.401L420.206 151.634Z" fill="#F8BDC5"/>
<g opacity="0.1">
<path opacity="0.1" d="M487.23 151.208C484.961 152.046 476.174 155.595 475.202 160.671C474.601 158.41 474.149 156.111 473.851 153.79L484.657 147.923C485.682 148.876 486.55 149.985 487.23 151.208Z" fill="black"/>
</g>
<g opacity="0.1">
<path opacity="0.1" d="M420.206 151.634C419.363 154.049 418.393 156.418 417.302 158.731C416.883 155.676 415.161 147.863 408.346 145.341C409.697 143.496 410.642 142.381 410.642 142.381L420.206 151.634Z" fill="black"/>
</g>
<g opacity="0.1">
<path opacity="0.1" d="M455.068 168.613H437.171V139.59C437.703 136.802 438.014 133.977 438.103 131.141C441.784 134.696 440.872 140.205 440.872 140.205L450.435 161.834L455.068 142.712L453.528 140.245L459.877 132.688C462.05 135.576 464.833 137.946 468.029 139.63C480.361 145.767 455.068 168.613 455.068 168.613Z" fill="black"/>
</g>
<g opacity="0.1">
<path opacity="0.1" d="M467.712 227.877C467.712 227.877 453.691 226.762 441.527 226.235L440.305 226.181C438.576 226.113 436.928 226.059 435.314 226.018C423.508 225.734 410.156 221.605 407.887 220.881C408.738 219.561 409.658 218.287 410.642 217.062L429.154 221.118C429.154 221.118 432.072 222.051 438.556 224.923L427.918 217.062L460.336 222.929C460.336 222.929 461.464 222.788 467.428 226.127L467.712 227.877Z" fill="black"/>
</g>
<path d="M455.069 143.915L453.529 141.448L460.377 133.25C460.377 133.25 474.499 140.178 478.2 138.657C478.2 138.657 487.149 146.092 487.453 150.391C487.453 150.391 474.499 154.71 474.803 161.205C475.107 167.701 468.657 181.577 468.657 181.577L465.956 192.676C464.293 199.402 464.063 206.403 465.28 213.223L467.745 226.965C467.745 226.965 448.308 225.424 435.327 225.113C422.347 224.802 407.563 219.868 407.563 219.868L415.134 203.923C417.864 198.169 419.201 191.852 419.037 185.484L418.362 159.671C418.362 159.671 417.747 146.707 407.556 144.544C407.556 144.544 413.108 133.121 421.739 134.047C421.739 134.047 434.314 128.795 438.049 132.344C441.784 135.892 440.865 141.455 440.865 141.455L450.429 163.084L455.069 143.915Z" fill="#ED677B"/>
<g opacity="0.1">
<path opacity="0.1" d="M429.073 107.821C431.552 107.821 433.497 105.192 435.976 105.327C437.259 105.395 438.36 106.213 439.42 106.949C443.427 109.726 447.885 111.785 452.597 113.033C454.427 113.519 456.365 113.884 458.202 113.438C460.039 112.992 461.762 111.546 461.971 109.66C462.022 108.829 461.912 107.996 461.647 107.206C459.567 99.9554 454.862 93.7404 448.45 89.7746C445.884 88.1997 442.75 86.9966 439.906 87.9834C437.34 88.8689 435.685 91.2751 433.828 93.2555C432.428 94.7384 430.839 96.0293 429.1 97.0947C427.75 97.9126 425.724 98.4465 424.947 99.947C423.481 102.745 425.784 107.794 429.073 107.821Z" fill="black"/>
</g>
<path d="M429.073 107.206C431.552 107.206 433.497 104.577 435.976 104.712C437.259 104.78 438.36 105.598 439.42 106.334C443.427 109.111 447.885 111.169 452.597 112.417C454.427 112.904 456.365 113.269 458.202 112.823C460.039 112.377 461.762 110.93 461.971 109.045C462.022 108.214 461.912 107.38 461.647 106.591C459.567 99.3402 454.862 93.1252 448.45 89.1594C445.884 87.5845 442.75 86.3814 439.906 87.3682C437.34 88.2536 435.685 90.6599 433.828 92.6403C432.428 94.1232 430.839 95.4141 429.1 96.4795C427.75 97.2973 425.724 97.8313 424.947 99.3318C423.481 102.157 425.784 107.172 429.073 107.206Z" fill="#85555C"/>
<path opacity="0.05" d="M421.597 177.717C421.597 177.717 436.712 183.273 446.586 178.954L451.523 179.265C451.523 179.265 459.729 185.024 468.407 182.449" fill="black"/>
<path opacity="0.05" d="M493.167 168.458C493.167 168.458 490.701 174.324 491.931 176.176L493.167 168.458Z" fill="black"/>
<path opacity="0.05" d="M394.757 166.605C394.757 166.605 395.993 172.472 394.757 174.324V166.605Z" fill="black"/>
<path d="M650.603 300.294C650.603 300.294 622.346 328.574 638.298 370.535C654.25 412.495 610.959 482.276 610.959 482.276C610.959 482.276 611.425 482.209 612.309 482.06C670.345 471.807 699.176 405.385 666.907 356.036C654.878 337.685 645.031 316.164 650.603 300.294Z" fill="#28A352"/>
<path opacity="0.1" d="M650.603 300.767C650.603 300.767 622.346 329.047 638.298 371.008C654.25 412.968 610.959 482.743 610.959 482.743C610.959 482.743 611.425 482.675 612.309 482.527C670.345 472.273 699.176 405.851 666.907 356.503C654.878 338.159 645.031 316.638 650.603 300.767Z" fill="black"/>
<path d="M650.603 300.294C650.603 300.294 634.651 334.955 650.603 363.235C666.556 391.515 653.305 470.874 610.952 482.276" stroke="#535461" stroke-miterlimit="10"/>
<path d="M700.933 414.672C700.933 414.672 668.69 409.535 665.752 438.451C662.814 467.367 603.732 471.375 603.732 471.375L604.84 472.111C653.602 504.15 700.223 492.517 693.193 449.975C690.599 434.166 690.815 418.282 700.933 414.672Z" fill="#28A352"/>
<path d="M700.932 414.672C700.932 414.672 675.903 420.167 677.97 442.945C680.036 465.724 640.824 493.024 603.759 471.381" stroke="#535461" stroke-miterlimit="10"/>
<path d="M672.567 472.429C672.567 472.429 647.172 467.346 640.398 460.566C633.624 453.787 603.151 441.931 599.768 450.428C596.384 458.924 554.058 487.704 582.836 492.787C611.614 497.87 650.556 499.546 659.018 496.167C667.481 492.787 672.567 472.429 672.567 472.429Z" fill="#A8A8A8"/>
<path opacity="0.2" d="M582.836 489.617C611.621 494.7 650.556 496.376 659.019 492.996C665.468 490.415 669.946 478.018 671.716 472.246L672.56 472.422C672.56 472.422 667.481 492.753 659.019 496.139C650.556 499.526 611.614 497.836 582.836 492.76C574.529 491.293 572.152 487.846 573.05 483.486C573.752 486.332 576.65 488.522 582.836 489.617Z" fill="black"/>
</g>
<defs>
<linearGradient id="paint0_linear" x1="352.506" y1="504.507" x2="352.506" y2="15.147" gradientUnits="userSpaceOnUse">
<stop stop-color="#808080" stop-opacity="0.25"/>
<stop offset="0.54" stop-color="#808080" stop-opacity="0.12"/>
<stop offset="1" stop-color="#808080" stop-opacity="0.1"/>
</linearGradient>
<linearGradient id="paint1_linear" x1="497.5" y1="95" x2="352.506" y2="500.451" gradientUnits="userSpaceOnUse">
<stop stop-color="#FD7634"/>
<stop offset="1" stop-color="#FFB800"/>
</linearGradient>
<linearGradient id="paint2_linear" x1="118193" y1="168140" x2="118193" y2="50602.7" gradientUnits="userSpaceOnUse">
<stop stop-color="#808080" stop-opacity="0.25"/>
<stop offset="0.54" stop-color="#808080" stop-opacity="0.12"/>
<stop offset="1" stop-color="#808080" stop-opacity="0.1"/>
</linearGradient>
<clipPath id="clip0">
<rect width="701" height="522" fill="white"/>
</clipPath>
</defs>
</svg>
