<svg width="744" height="566" viewBox="0 0 744 566" fill="none" xmlns="http://www.w3.org/2000/svg">
<g clip-path="url(#clip0)">
<path d="M744 511.057H0.183838V566H744V511.057Z" fill="#E6E6E6"/>
<path d="M742.968 511.103H0V509.267H743.301L742.968 511.103Z" fill="#3F3D56"/>
<path d="M583.552 211.487V374.136H160.632V211.487C160.631 157.51 181.266 105.576 218.311 66.322C255.355 27.0681 306.004 3.46549 359.884 0.348869C363.921 0.113439 367.991 -0.00283267 372.092 5.23905e-05C374.429 5.23905e-05 376.757 0.0349145 379.068 0.122131C432.722 1.82022 483.706 23.9326 521.614 61.9461C522.756 63.0885 523.881 64.2397 525.006 65.4084C562.595 104.748 583.566 157.072 583.552 211.487Z" fill="#E6E6E6"/>
<path d="M379.068 0.12217V374.136H359.884V0.348869C363.921 0.113439 367.991 -0.00283267 372.092 5.23905e-05C374.429 5.23905e-05 376.757 0.0349193 379.068 0.12217Z" fill="white"/>
<path d="M541.269 84.5946H202.915C207.952 77.8831 213.382 71.4763 219.178 65.4082H525.006C530.802 71.4763 536.232 77.8831 541.269 84.5946Z" fill="white"/>
<path d="M551.366 139.538H401.478V393.322H551.366V139.538Z" fill="white"/>
<path d="M453.748 182.412H431.076V205.087H453.748V182.412Z" fill="#E6E6E6"/>
<path d="M490.276 182.412H467.604V205.087H490.276V182.412Z" fill="#E6E6E6"/>
<path d="M526.804 182.412H504.132V205.087H526.804V182.412Z" fill="#E6E6E6"/>
<path d="M454.378 234.062H431.706V256.737H454.378V234.062Z" fill="#E6E6E6"/>
<path d="M490.906 234.062H468.233V256.737H490.906V234.062Z" fill="#E6E6E6"/>
<path d="M527.434 234.062H504.761V256.737H527.434V234.062Z" fill="#E6E6E6"/>
<path d="M455.008 285.711H432.335V308.387H455.008V285.711Z" fill="#E6E6E6"/>
<path d="M491.536 285.711H468.863V308.387H491.536V285.711Z" fill="#E6E6E6"/>
<path d="M528.064 285.711H505.391V308.387H528.064V285.711Z" fill="#E6E6E6"/>
<path d="M455.638 337.361H432.965V360.036H455.638V337.361Z" fill="#E6E6E6"/>
<path d="M492.166 337.361H469.493V360.036H492.166V337.361Z" fill="#E6E6E6"/>
<path d="M528.694 337.361H506.021V360.036H528.694V337.361Z" fill="#E6E6E6"/>
<path d="M455.638 337.361H432.965V360.036H455.638V337.361Z" fill="#E6E6E6"/>
<path d="M492.166 337.361H469.493V360.036H492.166V337.361Z" fill="#E6E6E6"/>
<path d="M528.694 337.361H506.021V360.036H528.694V337.361Z" fill="#E6E6E6"/>
<path d="M210.904 322.533C228.162 322.533 242.152 308.541 242.152 291.281C242.152 274.02 228.162 260.028 210.904 260.028C193.646 260.028 179.656 274.02 179.656 291.281C179.656 308.541 193.646 322.533 210.904 322.533Z" fill="white"/>
<path d="M210.99 291.281H211.075L212.621 379.886H209.359L210.99 291.281Z" fill="white"/>
<path d="M216.679 339.543L215.959 338.176L210.794 340.896L211.514 342.263L216.679 339.543Z" fill="white"/>
<path d="M302.773 292.67C329.017 292.67 350.292 271.393 350.292 245.146C350.292 218.899 329.017 197.621 302.773 197.621C276.529 197.621 255.255 218.899 255.255 245.146C255.255 271.393 276.529 292.67 302.773 292.67Z" fill="white"/>
<path d="M302.904 245.146H303.034L305.384 379.886H300.424L302.904 245.146Z" fill="white"/>
<path d="M311.556 318.538L310.461 316.458L302.606 320.595L303.701 322.674L311.556 318.538Z" fill="white"/>
<path d="M204.764 199.766L212.791 193.344C206.555 192.656 203.993 196.058 202.944 198.75C198.072 196.727 192.769 199.378 192.769 199.378L208.83 205.21C208.02 203.045 206.609 201.157 204.764 199.766Z" fill="white"/>
<path d="M289.348 147.439L297.376 141.018C291.14 140.33 288.577 143.731 287.529 146.423C282.657 144.4 277.353 147.052 277.353 147.052L293.414 152.883C292.604 150.719 291.194 148.83 289.348 147.439Z" fill="white"/>
<path d="M257.084 197.149L265.111 190.728C258.875 190.04 256.313 193.441 255.264 196.133C250.393 194.11 245.089 196.762 245.089 196.762L261.15 202.593C260.34 200.429 258.929 198.54 257.084 197.149Z" fill="white"/>
<path d="M605.788 354.949H138.396V393.322H605.788V354.949Z" fill="#E6E6E6"/>
<path d="M68.5868 454.836C68.5868 454.836 -25.9565 411.307 7.25649 381.122C40.4695 350.936 68.5868 454.836 68.5868 454.836Z" fill="#E6E6E6"/>
<path d="M66.9413 464.993C66.9413 464.993 23.4856 322.194 87.4757 329.024C151.466 335.853 66.9413 464.993 66.9413 464.993Z" fill="#E6E6E6"/>
<path d="M35.2573 452.329L37.0812 476.216L37.1102 476.628C37.1085 480.359 37.2969 484.087 37.6747 487.798C40.15 512.163 50.7893 523.267 63.2236 523.267C75.6579 523.267 85.8341 512.163 88.3093 487.798C88.6872 484.087 88.8756 480.359 88.8739 476.628L88.8884 476.296L88.8956 476.216L90.7267 452.329H35.2573Z" fill="#E6E6E6"/>
<path d="M88.8956 476.216L88.8884 476.295L88.8739 476.628C88.8757 480.359 88.6872 484.087 88.3094 487.798H37.6748C37.2969 484.087 37.1085 480.359 37.1102 476.628L37.0813 476.216H88.8956Z" fill="white"/>
<path d="M701.163 454.836C701.163 454.836 606.619 411.307 639.832 381.122C673.045 350.936 701.163 454.836 701.163 454.836Z" fill="#E6E6E6"/>
<path d="M699.517 464.993C699.517 464.993 656.062 322.194 720.052 329.024C784.042 335.853 699.517 464.993 699.517 464.993Z" fill="#E6E6E6"/>
<path d="M667.833 452.329L669.657 476.216L669.686 476.628C669.684 480.359 669.873 484.087 670.251 487.798C672.726 512.163 683.365 523.267 695.8 523.267C708.234 523.267 718.41 512.163 720.885 487.798C721.263 484.087 721.451 480.359 721.45 476.628L721.464 476.296L721.471 476.216L723.303 452.329H667.833Z" fill="#E6E6E6"/>
<path d="M721.472 476.216L721.464 476.295L721.45 476.628C721.452 480.359 721.263 484.087 720.885 487.798H670.251C669.873 484.087 669.684 480.359 669.686 476.628L669.657 476.216H721.472Z" fill="white"/>
<path d="M575.633 541.313L569.435 542.041C564.539 544.993 558.792 546.104 552.428 545.878C551.54 545.852 550.673 545.593 549.916 545.129C549.158 544.664 548.535 544.01 548.108 543.23C547.737 542.546 547.529 541.786 547.501 541.009C547.472 540.231 547.623 539.458 547.942 538.748C548.261 538.039 548.74 537.413 549.34 536.919C549.941 536.424 550.647 536.075 551.405 535.899L556.115 534.802L567.48 523.685L574.336 511.275L584.295 512.418L586.368 528.181C586.631 531.334 585.658 534.467 583.655 536.917C581.653 539.368 578.776 540.944 575.633 541.313Z" fill="#FFB8B8"/>
<path d="M479.096 533.338L473.021 534.768C468.493 538.259 462.911 540.017 456.562 540.518C455.677 540.593 454.787 540.435 453.981 540.06C453.175 539.685 452.481 539.105 451.968 538.38C451.522 537.742 451.229 537.011 451.112 536.242C450.995 535.473 451.057 534.687 451.293 533.946C451.53 533.205 451.934 532.528 452.474 531.969C453.014 531.409 453.677 530.982 454.409 530.72L458.963 529.094L468.987 516.754L474.385 503.644H484.409L488.265 519.068C488.886 522.171 488.276 525.395 486.566 528.057C484.855 530.72 482.177 532.613 479.096 533.338Z" fill="#FFB8B8"/>
<path d="M474.116 504.516L485.452 506.261L503.328 415.997L534.284 363.234L571.78 516.726L585.732 519.342C584.168 432.905 591.804 324.085 574.396 310.908L498.532 319.629L465.396 408.584L474.116 504.516Z" fill="#2F2E41"/>
<path d="M529.052 176.603C543.5 176.603 555.212 164.889 555.212 150.439C555.212 135.99 543.5 124.276 529.052 124.276C514.604 124.276 502.892 135.99 502.892 150.439C502.892 164.889 514.604 176.603 529.052 176.603Z" fill="#FFB8B8"/>
<path d="M565.676 190.556L534.284 195.789L526.436 167.881L549.108 160.905L565.676 190.556Z" fill="#FFB8B8"/>
<path d="M578.756 314.396L495.044 322.245C501.755 298.906 507.904 275.649 502.892 252.476C496.527 231.788 502.67 219.486 519.46 209.743L530.796 184.451L561.316 180.963C569.398 193.959 572.704 209.365 570.667 224.534C566.318 257.519 567.492 288.128 578.756 314.396Z" fill="#FD7634"/>
<path d="M528.463 119.539C519.732 121.534 509.795 124.361 509.238 126.988C500.257 129.251 493.478 134.673 492.094 142.938C491.978 143.652 492.021 144.384 492.218 145.08C492.416 145.776 492.763 146.42 493.237 146.968C493.71 147.515 494.298 147.952 494.958 148.248C495.619 148.543 496.336 148.69 497.06 148.679C501.944 148.616 509.276 148.148 514.117 146.125C528.182 155.189 530.542 178.762 524.4 194.807L534.066 193.921L544.065 164.645L546.619 192.771L568.675 189.854L565.834 153.989C564.961 145.536 562.085 137.414 557.444 130.295C556.962 129.58 556.435 128.897 555.865 128.25C552.51 124.458 548.191 121.647 543.366 120.113C538.541 118.579 533.391 118.381 528.463 119.539Z" fill="#2F2E41"/>
<path d="M473.067 550.308C473.019 550.735 473.062 551.167 473.192 551.576C473.321 551.986 473.536 552.363 473.82 552.685C474.105 553.006 474.454 553.265 474.845 553.443C475.235 553.621 475.659 553.716 476.089 553.72L485.898 553.821C486.427 553.784 486.921 553.548 487.282 553.161C487.644 552.773 487.845 552.263 487.845 551.734C487.845 551.316 487.719 550.907 487.485 550.561C487.251 550.214 486.918 549.946 486.53 549.791L483.635 548.633L479.426 542.74H476.059C474.405 544.945 473.373 547.552 473.069 550.291L473.067 550.308H473.067Z" fill="#FFB8B8"/>
<path d="M449.587 550.308C449.634 550.735 449.592 551.167 449.462 551.576C449.332 551.986 449.118 552.363 448.833 552.685C448.548 553.006 448.199 553.265 447.809 553.443C447.418 553.621 446.994 553.716 446.565 553.72L436.755 553.821C436.227 553.784 435.732 553.548 435.371 553.161C435.01 552.773 434.809 552.263 434.809 551.734C434.809 551.316 434.934 550.907 435.169 550.561C435.403 550.214 435.736 549.946 436.124 549.791L439.018 548.633L443.227 542.74H446.595C448.248 544.945 449.281 547.552 449.585 550.291L449.587 550.308Z" fill="#FFB8B8"/>
<path d="M442.385 542.74H447.436L465.115 466.123L474.375 543.582H480.268L488.265 443.812L447.436 443.391L442.385 542.74Z" fill="#3F3D56"/>
<path d="M419.656 402.135H426.39V386.138L427.923 383.074C428.23 382.459 428.388 381.78 428.383 381.092C428.378 380.405 428.211 379.728 427.896 379.117C427.58 378.507 427.124 377.979 426.566 377.578C426.008 377.177 425.363 376.913 424.683 376.809C424.061 376.713 423.426 376.753 422.821 376.926C422.216 377.098 421.656 377.4 421.178 377.81C420.701 378.219 420.317 378.728 420.055 379.299C419.792 379.871 419.656 380.493 419.656 381.122V402.135Z" fill="#FFB8B8"/>
<path d="M459.643 362.564C468.244 362.564 475.217 355.59 475.217 346.988C475.217 338.385 468.244 331.412 459.643 331.412C451.042 331.412 444.069 338.385 444.069 346.988C444.069 355.59 451.042 362.564 459.643 362.564Z" fill="#FFB8B8"/>
<path d="M453.329 373.509H469.324V354.986H453.329V373.509Z" fill="#FFB8B8"/>
<path d="M445.753 445.916C459.91 454.654 474.879 453.8 490.37 446.758L487.003 368.457L469.324 367.615L450.804 370.141L441.543 377.719L445.753 445.916Z" fill="#FD7634"/>
<path d="M428.916 418.132L447.436 403.819L441.544 377.719L430.6 397.925L427.232 394.558L417.13 402.135L428.916 418.132Z" fill="#FD7634"/>
<path d="M511.126 369.802L505.236 373.067L497.482 359.076L494.657 357.138C494.09 356.749 493.623 356.232 493.293 355.628C492.964 355.025 492.782 354.352 492.763 353.664C492.743 352.977 492.886 352.295 493.179 351.673C493.473 351.052 493.91 350.508 494.453 350.087C494.951 349.702 495.526 349.429 496.139 349.287C496.752 349.145 497.388 349.137 498.004 349.264C498.62 349.391 499.202 349.649 499.709 350.022C500.216 350.395 500.636 350.873 500.941 351.423L503.373 355.81L511.126 369.802Z" fill="#FFB8B8"/>
<path d="M478.164 393.295L500.515 381.428L512.258 375.193L513.942 365.09L506.365 357.512L497.105 363.406L497.947 370.141L487.003 368.457L478.164 393.295Z" fill="#FD7634"/>
<path d="M463.01 359.617C473.239 359.617 481.531 351.324 481.531 341.094C481.531 330.864 473.239 322.571 463.01 322.571C452.782 322.571 444.49 330.864 444.49 341.094C444.49 351.324 452.782 359.617 463.01 359.617Z" fill="#2F2E41"/>
<path d="M473.112 328.465C477.762 328.465 481.531 324.695 481.531 320.045C481.531 315.395 477.762 311.626 473.112 311.626C468.463 311.626 464.694 315.395 464.694 320.045C464.694 324.695 468.463 328.465 473.112 328.465Z" fill="#2F2E41"/>
<path d="M472.704 327.085C474.373 327.956 476.286 328.242 478.137 327.898C479.988 327.554 481.67 326.599 482.914 325.187C484.159 323.774 484.893 321.984 485.001 320.105C485.109 318.225 484.583 316.363 483.509 314.817C484.482 315.55 485.285 316.485 485.861 317.558C486.438 318.631 486.775 319.816 486.849 321.032C486.922 322.248 486.731 323.466 486.288 324.601C485.846 325.736 485.162 326.761 484.284 327.605C483.406 328.45 482.356 329.094 481.205 329.493C480.054 329.891 478.83 330.035 477.618 329.915C476.406 329.794 475.234 329.412 474.184 328.794C473.135 328.176 472.231 327.338 471.537 326.337C471.905 326.618 472.295 326.868 472.704 327.085Z" fill="#2F2E41"/>
<path d="M524.692 340.559L525.27 360.807C525.35 363.597 524.369 366.315 522.526 368.412C520.682 370.508 518.113 371.829 515.335 372.106C513.556 372.284 511.76 372.027 510.102 371.357C508.444 370.688 506.974 369.625 505.818 368.261C504.661 366.897 503.854 365.272 503.464 363.527C503.075 361.782 503.115 359.968 503.581 358.242L508.124 341.432L521.204 269.918L520.332 228.057L548.236 227.185L543.004 274.279L524.692 340.559Z" fill="#FFB8B8"/>
<path d="M549.98 231.545C539.87 227.694 528.698 227.694 518.588 231.545L520.332 196.661C520.332 192.96 521.802 189.411 524.418 186.794C527.035 184.177 530.584 182.707 534.284 182.707C537.984 182.707 541.533 184.177 544.149 186.794C546.766 189.411 548.236 192.96 548.236 196.661L549.98 231.545Z" fill="#FD7634"/>
</g>
<defs>
<clipPath id="clip0">
<rect width="744" height="566" fill="white"/>
</clipPath>
</defs>
</svg>
