<svg width="934" height="675" viewBox="0 0 934 675" fill="none" xmlns="http://www.w3.org/2000/svg">
<g clip-path="url(#clip0)">
<path d="M819.339 328.787H811.025V657.474H819.339V328.787Z" fill="#3F3D56"/>
<path d="M896.069 370.675C896.598 485.608 815.805 579.155 815.805 579.155C815.805 579.155 734.154 486.358 733.625 371.424C733.096 256.49 813.888 162.943 813.888 162.943C813.888 162.943 895.539 255.741 896.069 370.675Z" fill="#3F3D56"/>
<path d="M653.1 483.439H648.824V652.491H653.1V483.439Z" fill="#3F3D56"/>
<path d="M692.564 504.983C692.836 564.096 651.283 612.209 651.283 612.209C651.283 612.209 609.287 564.481 609.015 505.368C608.743 446.255 650.297 398.142 650.297 398.142C650.297 398.142 692.292 445.87 692.564 504.983Z" fill="#3F3D56"/>
<path d="M737.385 675C801.37 675 853.24 667.042 853.24 657.226C853.24 647.41 801.37 639.452 737.385 639.452C673.4 639.452 621.53 647.41 621.53 657.226C621.53 667.042 673.4 675 737.385 675Z" fill="#3F3D56"/>
<path d="M746.94 242.979C737.125 226.38 717.706 225.607 717.706 225.607C717.706 225.607 698.783 223.185 686.644 248.466C675.33 272.029 659.715 294.781 684.13 300.297L688.541 286.559L691.272 301.32C694.748 301.57 698.235 301.63 701.718 301.498C727.866 300.654 752.767 301.746 751.965 292.355C750.899 279.871 756.385 258.951 746.94 242.979Z" fill="#2F2E41"/>
<path d="M711.593 274.24C711.593 274.24 724.277 292.014 716.666 306.402C709.056 320.791 734.425 336.025 734.425 336.025L753.03 295.399C753.03 295.399 731.043 281.011 736.962 267.469L711.593 274.24Z" fill="#FBBEBE"/>
<path d="M720.049 281.857C732.192 281.857 742.036 272.005 742.036 259.851C742.036 247.698 732.192 237.845 720.049 237.845C707.906 237.845 698.062 247.698 698.062 259.851C698.062 272.005 707.906 281.857 720.049 281.857Z" fill="#FBBEBE"/>
<path d="M643.958 285.29L662.332 261.562C662.332 261.562 668.802 236.692 678.172 237.953C687.542 239.213 674.471 267.779 674.471 267.779L656.214 294.042L643.958 285.29Z" fill="#FBBEBE"/>
<path d="M736.963 600.941L742.882 632.257L755.567 635.643L752.184 598.402L736.963 600.941Z" fill="#FBBEBE"/>
<path d="M864.656 567.086L887.489 598.402L896.791 602.634L904.402 589.939L881.57 560.315L864.656 567.086Z" fill="#FBBEBE"/>
<path d="M731.888 322.483L717.782 303.897C717.782 303.897 690.451 308.941 687.914 311.48C685.377 314.019 694.679 360.57 694.679 360.57C694.679 360.57 696.371 373.266 703.982 380.037L711.593 385.115L774.171 372.419L776.524 344.552C777.381 334.401 776.11 324.184 772.792 314.553C769.475 304.923 764.184 296.093 757.258 288.628L746.37 290.118L731.888 322.483Z" fill="#575A89"/>
<path d="M691.297 313.173L687.069 311.481L667.618 309.788C667.618 309.788 660.853 308.095 662.545 304.709C664.236 301.324 665.927 300.478 662.545 299.631C659.162 298.785 658.316 297.938 659.162 295.399C660.008 292.86 665.082 287.782 665.082 287.782L650.705 275.933C650.705 275.933 649.927 276.483 648.67 277.503C641.532 283.287 618.947 304.155 635.484 325.023C654.934 349.568 677.766 363.956 696.371 358.878L691.297 313.173Z" fill="#575A89"/>
<path d="M709.901 380.884V392.733C709.901 392.733 702.29 407.121 704.827 420.664C707.364 434.206 708.21 440.977 708.21 440.977C708.486 452.494 710.481 463.905 714.13 474.832C720.049 491.759 700.599 602.635 725.123 604.328C749.647 606.021 763.178 607.713 770.788 599.25C778.399 590.786 758.104 445.209 758.104 445.209C758.104 445.209 827.447 589.939 841.824 584.015C856.2 578.09 892.563 564.548 888.335 556.931C884.106 549.313 777.554 380.037 777.554 380.037L774.171 372.42L709.901 380.884Z" fill="#2F2E41"/>
<path d="M750.493 626.333C750.493 626.333 736.962 625.486 736.962 629.718C736.962 633.95 730.197 648.339 730.197 648.339C730.197 648.339 725.123 665.266 738.654 663.573C752.184 661.881 760.641 646.646 760.641 646.646L757.258 630.565L750.493 626.333Z" fill="#2F2E41"/>
<path d="M891.717 596.71C891.717 596.71 879.878 589.092 880.724 594.171C881.569 599.249 882.415 612.791 888.334 613.637C894.254 614.484 912.013 619.562 912.858 621.255C913.704 622.947 934 629.718 934 618.716C934 607.713 921.315 599.249 921.315 599.249L906.939 588.246C906.939 588.246 897.637 587.4 895.945 593.324C894.254 599.249 891.717 596.71 891.717 596.71Z" fill="#2F2E41"/>
<path d="M720.083 239.744C727.837 239.744 734.124 233.452 734.124 225.691C734.124 217.929 727.837 211.638 720.083 211.638C712.328 211.638 706.042 217.929 706.042 225.691C706.042 233.452 712.328 239.744 720.083 239.744Z" fill="#2F2E41"/>
<path d="M704.563 221.993C704.564 218.522 705.847 215.174 708.167 212.594C710.486 210.014 713.678 208.384 717.126 208.018C716.636 207.966 716.142 207.94 715.648 207.939C711.925 207.939 708.353 209.42 705.72 212.056C703.087 214.691 701.607 218.265 701.607 221.993C701.607 225.72 703.087 229.294 705.72 231.93C708.353 234.565 711.925 236.046 715.648 236.046C716.142 236.045 716.636 236.019 717.126 235.967C713.678 235.601 710.486 233.971 708.167 231.391C705.847 228.811 704.564 225.463 704.563 221.993Z" fill="#2F2E41"/>
<path d="M742.601 241.38L723.416 231.321L696.922 235.436L691.44 259.667L705.086 259.141L708.898 250.24V258.994L715.194 258.752L718.848 244.58L721.132 259.667L743.515 259.209L742.601 241.38Z" fill="#2F2E41"/>
<path d="M741.452 382.844L711.865 383.645C711.865 383.645 686.619 388.562 688.035 378.363C689.452 368.164 714.081 371.731 714.081 371.731L741.041 367.615L741.452 382.844Z" fill="#FBBEBE"/>
<path d="M764.861 287.193C766.349 286.968 767.867 287.281 769.144 288.077C770.421 288.873 771.372 290.098 771.826 291.534C777.618 309.802 795.463 370.935 777.733 379.322C756.851 389.201 741.612 388.767 741.612 388.767L733.455 368.667L740.881 361.692L748.808 310.677L752.607 289.051L764.861 287.193Z" fill="#575A89"/>
<path opacity="0.4" d="M759.372 321.213L755.99 355.069L726.392 367.764L759.372 360.147V321.213Z" fill="black"/>
<path d="M599.751 209.447C609.284 211.976 617.532 217.972 622.882 226.264L625.648 230.552L625.787 230.729L674.315 244.941C675.205 245.202 675.956 245.801 676.409 246.611C676.861 247.421 676.978 248.376 676.734 249.271L672.967 263.096C672.844 263.547 672.633 263.968 672.347 264.337C672.061 264.705 671.705 265.014 671.299 265.244C670.894 265.474 670.446 265.622 669.984 265.679C669.521 265.735 669.051 265.7 668.602 265.574L620.062 251.995L620.061 251.996L615.185 253.841C606.209 257.238 596.362 257.573 587.176 254.794L599.751 209.447Z" fill="#3F3D56"/>
<path d="M650.856 249.543C651.316 247.971 649.301 245.997 646.356 245.135C643.411 244.272 640.65 244.847 640.191 246.42C639.731 247.992 641.746 249.965 644.691 250.828C647.637 251.69 650.397 251.115 650.856 249.543Z" fill="#575A89"/>
<path d="M648.378 250.993C649.503 250.993 650.415 250.08 650.415 248.954C650.415 247.827 649.503 246.915 648.378 246.915C647.252 246.915 646.34 247.827 646.34 248.954C646.34 250.08 647.252 250.993 648.378 250.993Z" fill="#3F3D56"/>
<path d="M603.808 235.635C607.855 223.144 606.56 211.534 600.917 209.703C595.273 207.871 587.418 216.512 583.371 229.002C579.324 241.493 580.619 253.103 586.262 254.934C591.906 256.766 599.761 248.125 603.808 235.635Z" fill="#FD7634"/>
<path opacity="0.4" d="M602.3 235.193C606.199 223.158 605.138 211.941 600.007 209.501C600.316 209.54 600.62 209.607 600.917 209.702C606.56 211.534 607.855 223.144 603.808 235.635C599.761 248.125 591.906 256.766 586.262 254.934C586.058 254.867 585.858 254.787 585.664 254.694C591.215 255.401 598.466 247.025 602.3 235.193Z" fill="black"/>
<path d="M600.389 209.492L490.253 123.986C470.777 108.757 452.088 92.5457 434.257 75.416C402.862 45.4646 360.243 21.5179 310.622 8.76852C190.064 -22.207 94.5577 32.7163 51.1188 113.363C-15.2606 236.599 -66.1316 436.577 228.194 330.129C292.563 306.849 357.719 304.374 407.123 292.111L586.013 255.196L600.389 209.492Z" fill="#FD7634"/>
<path d="M269.738 65.6071C273.007 65.6071 275.657 62.9546 275.657 59.6825C275.657 56.4104 273.007 53.7578 269.738 53.7578C266.468 53.7578 263.818 56.4104 263.818 59.6825C263.818 62.9546 266.468 65.6071 269.738 65.6071Z" fill="#F2F2F2"/>
<path d="M384.73 73.3771H383.189V71.835H382.888V73.3771H381.348V73.6784H382.888V75.2205H383.189V73.6784H384.73V73.3771Z" fill="#F2F2F2"/>
<path d="M539.485 202.026H537.944V200.484H537.643V202.026H536.103V202.328H537.643V203.87H537.944V202.328H539.485V202.026Z" fill="#F2F2F2"/>
<path d="M528.492 241.806H526.951V240.264H526.65V241.806H525.109V242.108H526.65V243.65H526.951V242.108H528.492V241.806Z" fill="#F2F2F2"/>
<path d="M55.7702 275.661H54.2294V274.119H53.9284V275.661H52.3876V275.963H53.9284V277.505H54.2294V275.963H55.7702V275.661Z" fill="#F2F2F2"/>
<path d="M123.423 91.151H121.882V89.6089H121.581V91.151H120.04V91.4523H121.581V92.9944H121.882V91.4523H123.423V91.151Z" fill="#F2F2F2"/>
<path d="M386.421 248.577H384.881V247.035H384.58V248.577H383.039V248.879H384.58V250.421H384.881V248.879H386.421V248.577Z" fill="#F2F2F2"/>
<path d="M224.901 36.9825H223.361V35.4404H223.059V36.9825H221.519V37.2838H223.059V38.8259H223.361V37.2838H224.901V36.9825Z" fill="#F2F2F2"/>
<path d="M225.493 158.842L223.574 159.139C224.174 162.981 224.648 166.908 224.994 170.793L226.931 170.624C226.584 166.688 226.102 162.727 225.493 158.842Z" fill="#E6E6E6"/>
<path d="M220.242 135.703L218.381 136.27C219.506 139.994 220.513 143.811 221.367 147.611L223.269 147.18C222.398 143.337 221.375 139.478 220.242 135.703Z" fill="#E6E6E6"/>
<path d="M211.861 113.51L210.094 114.323C211.718 117.869 213.24 121.509 214.618 125.148L216.436 124.462C215.041 120.781 213.51 117.09 211.861 113.51Z" fill="#E6E6E6"/>
<path d="M200.53 92.7065L198.889 93.7476C200.978 97.0315 202.982 100.434 204.842 103.845L206.551 102.914C204.673 99.4607 202.644 96.0243 200.53 92.7065Z" fill="#E6E6E6"/>
<path d="M186.441 73.6377L184.961 74.8988C187.481 77.8611 189.934 80.9589 192.251 84.0905L193.807 82.9309C191.473 79.7655 188.995 76.6339 186.441 73.6377Z" fill="#E6E6E6"/>
<path d="M169.883 56.6592L168.589 58.1065C171.498 60.7049 174.348 63.4387 177.063 66.2233L178.458 64.8606C175.71 62.0421 172.826 59.2829 169.883 56.6592Z" fill="#E6E6E6"/>
<path d="M151.177 42.0845L150.086 43.6926C153.317 45.8678 156.513 48.1869 159.583 50.5821L160.784 49.0501C157.672 46.6295 154.441 44.2851 151.177 42.0845Z" fill="#E6E6E6"/>
<path d="M134.154 31.9619V34.1625C136.175 35.2205 138.179 36.3292 140.141 37.4634L141.114 35.7791C138.831 34.4587 136.511 33.1863 134.154 31.9619Z" fill="#E6E6E6"/>
<path d="M225.624 182.8L227.568 182.765C227.604 184.729 227.607 186.704 227.576 188.635L225.633 188.605C225.662 186.696 225.66 184.743 225.624 182.8Z" fill="#E6E6E6"/>
<path d="M111.33 325.579L109.41 325.875C110.011 329.718 110.484 333.645 110.831 337.53L112.768 337.361C112.421 333.425 111.939 329.464 111.33 325.579Z" fill="#E6E6E6"/>
<path d="M106.078 302.439L104.218 303.006C105.343 306.73 106.349 310.547 107.203 314.348L109.106 313.916C108.235 310.073 107.212 306.214 106.078 302.439Z" fill="#E6E6E6"/>
<path d="M97.698 280.247L95.9305 281.06C97.5542 284.606 99.0764 288.245 100.455 291.885L102.273 291.199C100.878 287.517 99.347 283.827 97.698 280.247Z" fill="#E6E6E6"/>
<path d="M86.3662 259.443L84.7256 260.484C86.8144 263.768 88.8186 267.17 90.679 270.581L92.3872 269.65C90.5099 266.197 88.4803 262.761 86.3662 259.443Z" fill="#E6E6E6"/>
<path d="M72.2776 240.374L70.7977 241.635C73.3178 244.597 75.7702 247.695 78.0873 250.827L79.6433 249.667C77.3092 246.502 74.8314 243.37 72.2776 240.374Z" fill="#E6E6E6"/>
<path d="M55.7196 223.396L54.4258 224.843C57.3348 227.442 60.1847 230.175 62.8993 232.96L64.2946 231.597C61.5463 228.779 58.6625 226.02 55.7196 223.396Z" fill="#E6E6E6"/>
<path d="M37.0137 208.821L35.9229 210.429C39.1532 212.605 42.3498 214.924 45.4196 217.319L46.6204 215.787C43.5084 213.366 40.278 211.022 37.0137 208.821Z" fill="#E6E6E6"/>
<path d="M19.9906 198.699V200.899C22.0117 201.957 24.0159 203.066 25.9778 204.2L26.9503 202.516C24.6671 201.196 22.3471 199.923 19.9906 198.699Z" fill="#E6E6E6"/>
<path d="M111.461 349.537L113.405 349.501C113.44 351.466 113.443 353.441 113.413 355.372L111.469 355.342C111.499 353.433 111.496 351.479 111.461 349.537Z" fill="#E6E6E6"/>
<path d="M502.023 241.788L500.103 242.084C500.704 245.926 501.177 249.854 501.524 253.738L503.46 253.569C503.114 249.634 502.632 245.673 502.023 241.788Z" fill="#E6E6E6"/>
<path d="M496.771 218.647L494.911 219.215C496.035 222.939 497.042 226.756 497.896 230.556L499.799 230.124C498.928 226.282 497.904 222.422 496.771 218.647Z" fill="#E6E6E6"/>
<path d="M488.391 196.456L486.623 197.268C488.247 200.814 489.769 204.454 491.148 208.093L492.966 207.408C491.571 203.726 490.04 200.036 488.391 196.456Z" fill="#E6E6E6"/>
<path d="M477.059 175.651L475.418 176.692C477.507 179.976 479.511 183.379 481.372 186.79L483.08 185.859C481.203 182.406 479.173 178.969 477.059 175.651Z" fill="#E6E6E6"/>
<path d="M462.97 156.583L461.49 157.844C464.011 160.806 466.463 163.904 468.78 167.035L470.336 165.876C468.002 162.71 465.524 159.579 462.97 156.583Z" fill="#E6E6E6"/>
<path d="M446.412 139.604L445.119 141.052C448.028 143.65 450.878 146.384 453.592 149.169L454.987 147.806C452.239 144.987 449.355 142.228 446.412 139.604Z" fill="#E6E6E6"/>
<path d="M427.707 125.03L426.616 126.638C429.846 128.813 433.043 131.132 436.112 133.527L437.313 131.995C434.201 129.575 430.971 127.23 427.707 125.03Z" fill="#E6E6E6"/>
<path d="M410.683 114.907V117.108C412.705 118.166 414.709 119.275 416.671 120.409L417.643 118.724C415.36 117.404 413.04 116.132 410.683 114.907Z" fill="#E6E6E6"/>
<path d="M502.154 265.745L504.098 265.71C504.133 267.674 504.136 269.649 504.106 271.58L502.162 271.55C502.192 269.641 502.189 267.688 502.154 265.745Z" fill="#E6E6E6"/>
<path d="M126.252 169.187H124.819V167.751H124.539V169.187H123.105V169.466H124.539V170.902H124.819V169.466H126.252V169.187Z" fill="#F2F2F2"/>
<path d="M109.727 255.82H108.294V254.384H108.014V255.82H106.58V256.1H108.014V257.535H108.294V256.1H109.727V255.82Z" fill="#F2F2F2"/>
<path d="M61.2398 331.746H59.8056V330.312H59.5257V331.746H58.0923V332.026H59.5257V333.462H59.8056V332.026H61.2398V331.746Z" fill="#F2F2F2"/>
<path d="M196.123 235.448C182.26 214.824 176.241 189.91 179.157 165.224C182.073 140.538 193.731 117.716 212.018 100.896C230.304 84.0752 254.008 74.3704 278.83 73.5413C303.653 72.7121 327.95 80.8135 347.316 96.3763C366.683 111.939 379.835 133.933 384.39 158.369C388.944 182.805 384.597 208.065 372.139 229.569C359.681 251.073 339.935 267.396 316.483 275.579C293.031 283.762 267.426 283.263 244.31 274.171C242.812 279.525 240.01 284.423 236.156 288.427C232.302 292.431 227.517 295.416 222.228 297.115C216.938 298.814 211.311 299.174 205.849 298.163C200.386 297.151 195.26 294.799 190.929 291.319C186.597 287.838 183.196 283.336 181.029 278.217C178.861 273.098 177.997 267.521 178.511 261.985C179.026 256.449 180.904 251.128 183.978 246.497C187.051 241.866 191.224 238.07 196.123 235.448Z" fill="#DE4900"/>
<path d="M281.712 118.017C305.52 118.017 321.9 131.234 321.9 150.233C321.9 162.815 315.805 171.521 304.06 178.447C293.013 184.865 289.267 189.567 289.267 197.701C289.267 198.36 289.137 199.013 288.885 199.622C288.633 200.231 288.264 200.784 287.798 201.25C287.332 201.716 286.779 202.086 286.171 202.339C285.562 202.591 284.91 202.721 284.251 202.721H272.08C270.78 202.721 269.531 202.215 268.595 201.312C267.66 200.408 267.112 199.176 267.067 197.876L267.046 197.256C265.966 184.166 270.537 176.032 282.029 169.297C292.759 162.879 297.267 158.812 297.267 150.932C297.267 143.053 289.648 137.27 280.188 137.27C272.998 137.27 267.307 140.773 264.697 146.492C263.78 148.428 262.328 150.061 260.513 151.197C258.698 152.333 256.595 152.924 254.455 152.902C246.208 152.902 240.76 144.125 244.617 136.829C250.718 125.288 263.59 118.017 281.712 118.017ZM265.014 226.931C265.014 219.623 271.109 213.841 278.601 213.841C286.156 213.841 292.251 219.56 292.251 226.931C292.251 234.302 286.156 240.021 278.601 240.021C271.045 240.021 265.014 234.302 265.014 226.931Z" fill="#FD7634"/>
</g>
<defs>
<clipPath id="clip0">
<rect width="934" height="675" fill="white"/>
</clipPath>
</defs>
</svg>
